<svg xmlns="http://www.w3.org/2000/svg" viewBox="0 0 32 32"><defs><style>.cls-1{fill:#231f20;}</style></defs><g id="support_24_7" data-name="support 24/7"><path class="cls-1" d="M30,15.54v-.09c0-.16,0-.31,0-.47s0-.53-.08-.79-.07-.51-.12-.76a13.7,13.7,0,0,0-1.34-3.86s0,0,0,0a0,0,0,0,0,0,0c-.16-.3-.33-.59-.51-.88S27.5,8,27.3,7.76a13.7,13.7,0,0,0-2.86-2.88l0,0-.34-.24-.37-.26-.09-.07-.09-.06-.06,0-.08,0-.72-.41,0,0h0l-.05,0a13.6,13.6,0,0,0-3.66-1.34l-.12,0-.05,0c-.34-.07-.68-.12-1-.17l-.55,0-.49,0h-.05c-.21,0-.41,0-.62,0A14,14,0,0,0,9.15,28.2l.18.11.56.29h0A14.28,14.28,0,0,0,13,29.68,14,14,0,0,0,16,30h.15A1,1,0,0,0,17,29a1,1,0,0,0-1-1,11.88,11.88,0,0,1-5.72-1.45c-.26-.14-.5-.29-.75-.45a0,0,0,0,0,0,0A12,12,0,0,1,4,16a1.21,1.21,0,0,1,0-.19,11.16,11.16,0,0,1,.3-2.53h0a12.15,12.15,0,0,1,1-2.67A12.44,12.44,0,0,1,6.72,8.4h0A12.18,12.18,0,0,1,8.61,6.55a11.79,11.79,0,0,1,2.48-1.5h0A12,12,0,0,1,16,4a5.43,5.43,0,0,1,.57,0h0a8.52,8.52,0,0,1,.87.08,3,3,0,0,1,.43.06,3,3,0,0,1,.43.08h.1a11.93,11.93,0,0,1,4.88,2.26h0a12.07,12.07,0,0,1,2.31,2.37h0l0,0h0a7.38,7.38,0,0,1,.5.74,6.59,6.59,0,0,1,.34.57,1.28,1.28,0,0,1,.11.2A11.65,11.65,0,0,1,27.82,14s0,.07,0,.1a4.38,4.38,0,0,1,.08.62,8.09,8.09,0,0,1,.07.86v0c0,.12,0,.23,0,.35a1,1,0,0,0,1,1h0a1,1,0,0,0,1-1C30,15.79,30,15.66,30,15.54Z"/><path class="cls-1" d="M12.24,14.83c-.32.32-.75.72-1.29,1.19L9.07,18.09a1,1,0,0,0-.32.45,1,1,0,0,0-.07.36v.68a.59.59,0,0,0,.15.4.54.54,0,0,0,.39.17H15a.5.5,0,0,0,.4-.18.6.6,0,0,0,.14-.39v-.94a.58.58,0,0,0-.15-.41.5.5,0,0,0-.39-.16H12.1l1.32-1.48a10.7,10.7,0,0,0,1-1,3.87,3.87,0,0,0,.67-1.08,3.18,3.18,0,0,0,.23-1.24A3.47,3.47,0,0,0,15,11.69a2.77,2.77,0,0,0-1.09-1.11,3.55,3.55,0,0,0-1.78-.4,3.4,3.4,0,0,0-1.38.27,3.21,3.21,0,0,0-1,.73,3,3,0,0,0-.65,1,3.28,3.28,0,0,0-.23,1.2.49.49,0,0,0,.13.35.48.48,0,0,0,.37.17h1.07a.68.68,0,0,0,.35-.11.59.59,0,0,0,.25-.41,2.1,2.1,0,0,1,.19-.63,1,1,0,0,1,.94-.57.88.88,0,0,1,.74.28,1.26,1.26,0,0,1,.24.81,1.38,1.38,0,0,1-.19.69A3.74,3.74,0,0,1,12.24,14.83Z"/><path class="cls-1" d="M22.92,16.06H22.1V10.9a.56.56,0,0,0-.15-.39.53.53,0,0,0-.39-.18H20.25a.78.78,0,0,0-.66.34L16.06,16.1a.85.85,0,0,0-.15.3.81.81,0,0,0,0,.25v.91A.6.6,0,0,0,16,18a.54.54,0,0,0,.4.18H20v1.45a.63.63,0,0,0,.14.4.54.54,0,0,0,.39.17h1A.5.5,0,0,0,22,20a.54.54,0,0,0,.15-.39V18.13h.83a.5.5,0,0,0,.39-.18.56.56,0,0,0,.15-.39v-.93a.57.57,0,0,0-.14-.4A.53.53,0,0,0,22.92,16.06ZM20,13.37v2.74H18.25Z"/><path class="cls-1" d="M20.9,27a12.43,12.43,0,0,1-1.68.6,1,1,0,0,0,.26,2,1.24,1.24,0,0,0,.27,0,14.72,14.72,0,0,0,2-.7A1,1,0,1,0,20.9,27Z"/><path class="cls-1" d="M28.82,18.4a1,1,0,0,0-1.23.7A13,13,0,0,1,27,20.79a1,1,0,0,0,.52,1.31.91.91,0,0,0,.39.08,1,1,0,0,0,.92-.6,13.39,13.39,0,0,0,.69-2A1,1,0,0,0,28.82,18.4Z"/><path class="cls-1" d="M25.13,23.81a11.53,11.53,0,0,1-1.25,1.27,1,1,0,0,0,.66,1.75,1,1,0,0,0,.66-.25,13.61,13.61,0,0,0,1.46-1.48,1,1,0,0,0-.12-1.41A1,1,0,0,0,25.13,23.81Z"/></g></svg>