<svg xmlns="http://www.w3.org/2000/svg" version="1.1" viewBox="-5.0 -10.0 110.0 135.0">
 <path d="m83.496 16.504c-10.414-10.41-25.078-15.391-39.68-13.469-14.598 1.9219-27.477 10.527-34.84 23.281-7.3633 12.754-8.375 28.203-2.7383 41.809 5.6328 13.605 17.277 23.816 31.5 27.629 14.227 3.8125 29.414 0.78906 41.098-8.1758 11.684-8.9648 18.531-22.852 18.531-37.578 0.015624-12.566-4.9766-24.621-13.871-33.496zm-46.664 46.664c-6.75-6.7461-12.07-14.781-15.641-23.633-1.5078-3.6016-0.65625-7.7617 2.1484-10.484l7.832-7.832c0.52344-0.54688 1.2695-0.82422 2.0234-0.74219 0.37109 0.027344 0.73047 0.13672 1.0547 0.31641 0.32031 0.1875 0.59766 0.44141 0.8125 0.75l5.5586 7.7461h-0.003906c0.74609 1.0156 0.62891 2.4258-0.26953 3.3086l-2.9492 2.9492 0.003906-0.003906c-2.5312 2.5156-2.8867 6.4883-0.84375 9.4141 2.4961 3.6055 5.3125 6.9766 8.4141 10.078 3.1016 3.1016 6.4727 5.918 10.078 8.4141 2.9258 2.0469 6.8984 1.6914 9.4141-0.84375l2.9414-2.9492v0.003906c0.88281-0.89844 2.2891-1.0117 3.3086-0.26953l7.7461 5.5586v-0.003907c0.62109 0.43359 1.0195 1.1211 1.0781 1.875 0.0625 0.75391-0.21875 1.4961-0.76172 2.0195l-7.8281 7.8242c-2.7227 2.8008-6.8828 3.6523-10.488 2.1445-8.8477-3.5703-16.887-8.8906-23.629-15.641zm22.77 17.797c-18.469-7.4531-33.113-22.098-40.566-40.566-1.8477-4.4688-0.79688-9.6094 2.6562-12.996l7.832-7.832c1.5586-1.5508 3.957-1.8789 5.875-0.80469 0.61719 0.34766 1.1484 0.83203 1.5586 1.4141l5.5586 7.7461c1.4023 1.9414 1.1836 4.6172-0.51562 6.3086l-2.9492 2.9492v-0.003906c-1.7461 1.7188-1.9922 4.4453-0.58203 6.4492 2.4219 3.4883 5.1484 6.75 8.1523 9.7539 3 3 6.2617 5.7305 9.75 8.1484 2.0039 1.4102 4.7305 1.1641 6.4492-0.58203l2.9492-2.9492h-0.003906c1.6914-1.6992 4.3672-1.918 6.3086-0.51562l7.7461 5.5586c1.1758 0.82812 1.9258 2.1406 2.043 3.5742 0.11719 1.4336-0.40625 2.8477-1.4336 3.8594l-7.832 7.832c-3.3867 3.4531-8.5273 4.5039-12.996 2.6562zm-5.4297-56.219c-0.3125 0.011718-0.61719-0.10938-0.84375-0.32812s-0.35547-0.51953-0.35547-0.83594c0-0.31641 0.12891-0.61719 0.35547-0.83594s0.53125-0.33594 0.84375-0.32812c6.2109 0 12.164 2.4688 16.551 6.8555 4.3906 4.3906 6.8555 10.344 6.8555 16.555 0.011719 0.3125-0.10938 0.61719-0.32812 0.84375s-0.51953 0.35547-0.83594 0.35547c-0.31641 0-0.61719-0.12891-0.83594-0.35547s-0.33984-0.53125-0.32812-0.84375c0-5.5938-2.2188-10.953-6.1719-14.906s-9.3125-6.1758-14.906-6.1758zm0 8.0273v0.003906c-0.3125 0.007812-0.61719-0.10938-0.84375-0.32812-0.22656-0.22266-0.35547-0.52344-0.35547-0.83984 0-0.3125 0.12891-0.61328 0.35547-0.83594 0.22656-0.21875 0.53125-0.33594 0.84375-0.32813 4.082 0 7.9922 1.6211 10.875 4.5078 2.8867 2.8828 4.5078 6.793 4.5078 10.875 0.007812 0.3125-0.10938 0.61719-0.32813 0.84375-0.22266 0.22656-0.52344 0.35547-0.83594 0.35547-0.31641 0-0.61719-0.12891-0.83984-0.35547-0.21875-0.22656-0.33594-0.53125-0.32812-0.84375 0-7.2109-5.8438-13.055-13.051-13.055zm0 8.0312c-0.3125 0.011718-0.61719-0.10938-0.84375-0.32813s-0.35547-0.51953-0.35547-0.83594 0.12891-0.61719 0.35547-0.83594 0.53125-0.33984 0.84375-0.32813c1.9531 0 3.8203 0.77344 5.1992 2.1523s2.1523 3.2461 2.1523 5.1992c0.011718 0.3125-0.10938 0.61719-0.32813 0.84375s-0.51953 0.35547-0.83594 0.35547-0.61719-0.12891-0.83594-0.35547-0.33984-0.53125-0.32813-0.84375c0-2.7734-2.25-5.0234-5.0234-5.0234z" fill-rule="evenodd"/>
<text x="0.0" y="117.5" font-size="5.0" font-weight="bold" font-family="Arbeit Regular, Helvetica, Arial-Unicode, Arial, Sans-serif" fill="#000000">Created by Siti Solekah</text><text x="0.0" y="122.5" font-size="5.0" font-weight="bold" font-family="Arbeit Regular, Helvetica, Arial-Unicode, Arial, Sans-serif" fill="#000000">from Noun Project</text></svg>