<svg xmlns="http://www.w3.org/2000/svg" version="1.1" viewBox="-5.0 -10.0 110.0 135.0">
 <path d="m74.805 47.727h-8.7617c-0.29297 0-0.57812 0.11328-0.78516 0.32422-0.20703 0.20703-0.32422 0.49219-0.32422 0.78516v8.7656c0 0.61328 0.49609 1.1094 1.1094 1.1094h8.7617c0.61328 0 1.1133-0.49609 1.1133-1.1094v-8.7656c0-0.29297-0.11719-0.57813-0.32812-0.78516-0.20703-0.20703-0.48828-0.32422-0.78516-0.32422zm-1.1094 8.7617h-6.5391v-6.5391h6.5391zm8.1602-25.672-6.957-6.957v-12.75c0-0.29297-0.11328-0.57422-0.32422-0.78516-0.20703-0.20703-0.48828-0.32422-0.78516-0.32422h-54.859c-0.29297 0-0.57813 0.11719-0.78516 0.32422-0.21094 0.21094-0.32812 0.49219-0.32812 0.78516v71.367c0 0.29688 0.11719 0.57813 0.32812 0.78906 0.20703 0.20703 0.49219 0.32422 0.78516 0.32422h6.1719v5.3008c0 0.61328 0.49609 1.1094 1.1094 1.1094h54.859c0.29297 0 0.57813-0.11719 0.78516-0.32422 0.21094-0.21094 0.32812-0.49219 0.32812-0.78516v-57.289c-0.003906-0.29687-0.12109-0.57812-0.32812-0.78516zm-13.754-10.617 10.285 10.289h-10.285zm-48.062 61.168v-69.145h52.641v9.4141l-4.8984-4.8984h-0.003906c-0.20703-0.20703-0.48828-0.32422-0.78516-0.32422h-40.781c-0.61328 0-1.1094 0.49609-1.1094 1.1094v63.844zm7.2812 6.4102v-69.145h38.559v12.969c0 0.61328 0.5 1.1094 1.1133 1.1094h12.969v55.066zm33.168-49.895c0 0.29688-0.11719 0.57813-0.32422 0.78516-0.21094 0.21094-0.49219 0.32812-0.78516 0.32422h-27.43c-0.61328 0-1.1094-0.49609-1.1094-1.1094 0-0.61328 0.49609-1.1094 1.1094-1.1094h27.43c0.61328 0 1.1094 0.49609 1.1094 1.1094zm0 4.9531c0 0.61328-0.49609 1.1094-1.1094 1.1094h-27.43c-0.60156-0.015624-1.0781-0.50781-1.0781-1.1094 0-0.60156 0.47656-1.0938 1.0781-1.1133h27.43c0.61328 0 1.1094 0.5 1.1094 1.1133zm0 7.8984c0 0.61719-0.49609 1.1133-1.1094 1.1133h-27.43c-0.60156-0.019531-1.0781-0.51172-1.0781-1.1094 0-0.60156 0.47656-1.0938 1.0781-1.1133h27.43c0.29297 0 0.57812 0.11719 0.78516 0.32812 0.20703 0.20703 0.32422 0.49219 0.32422 0.78516zm0 4.9531c0 0.29688-0.11719 0.57812-0.32422 0.78906-0.21094 0.20703-0.49219 0.32422-0.78516 0.32422h-27.43c-0.61328 0-1.1094-0.5-1.1094-1.1133s0.49609-1.1094 1.1094-1.1094h27.43c0.29297 0 0.57812 0.11719 0.78516 0.32812 0.21094 0.20703 0.32422 0.49219 0.32422 0.78516zm0 7.9062c0 0.61328-0.49609 1.1094-1.1094 1.1094h-27.43c-0.61328 0-1.1094-0.49609-1.1094-1.1094s0.49609-1.1094 1.1094-1.1094h27.43c0.29297 0 0.57812 0.11719 0.78516 0.32422 0.21094 0.21094 0.32813 0.49609 0.32422 0.79297zm0 4.9531c0 0.29297-0.11719 0.57812-0.32422 0.78516-0.21094 0.20703-0.49219 0.32422-0.78516 0.32422h-27.43c-0.61328 0-1.1094-0.49609-1.1094-1.1094s0.49609-1.1133 1.1094-1.1133h27.43c0.29297 0 0.57812 0.11719 0.78516 0.32812 0.20703 0.21094 0.32422 0.49219 0.32422 0.78906zm0 7.9062v-0.003906c0 0.29688-0.11719 0.57812-0.32422 0.78906-0.21094 0.20703-0.49219 0.32422-0.78516 0.32422h-27.43c-0.61328 0-1.1094-0.49609-1.1094-1.1133 0-0.61328 0.49609-1.1094 1.1094-1.1094h27.43c0.29297 0 0.57812 0.11719 0.78516 0.32812 0.21094 0.20703 0.32422 0.49219 0.32422 0.78516zm0 4.9531v-0.003906c0 0.29688-0.11719 0.57812-0.32422 0.78516-0.21094 0.21094-0.49219 0.32812-0.78516 0.32812h-27.43c-0.61328 0-1.1094-0.5-1.1094-1.1133 0-0.61328 0.49609-1.1094 1.1094-1.1094h27.43c0.29297 0 0.57812 0.11719 0.78516 0.32422 0.20703 0.21094 0.32422 0.49609 0.32422 0.78906zm0-58.191c0 0.61328-0.49609 1.1094-1.1094 1.1094h-27.43c-0.61328 0-1.1094-0.49609-1.1094-1.1094 0-0.61719 0.49609-1.1133 1.1094-1.1133h27.43c0.29297 0 0.57812 0.11719 0.78516 0.32813 0.21094 0.20703 0.32422 0.49219 0.32422 0.78906zm0 4.9531v-0.003907c0 0.29688-0.11719 0.57813-0.32422 0.78516-0.21094 0.21094-0.49219 0.32812-0.78516 0.32812h-27.43c-0.61328 0-1.1094-0.5-1.1094-1.1133 0-0.61328 0.49609-1.1094 1.1094-1.1094h27.43c0.29297 0 0.57812 0.11719 0.78516 0.32422 0.21094 0.21094 0.32422 0.49609 0.32422 0.78906zm14.316 6.6992-8.7617-0.003907c-0.29297 0-0.57812 0.11719-0.78516 0.32812-0.20703 0.20703-0.32422 0.49219-0.32422 0.78516v8.7617c0 0.61328 0.49609 1.1133 1.1094 1.1133h8.7617c0.61328-0.003906 1.1133-0.5 1.1133-1.1133v-8.7578c0-0.61328-0.5-1.1133-1.1133-1.1133zm-1.1094 8.7617h-6.5391v-6.5391h6.5391zm1.1094 16.953-8.7617-0.003906c-0.29297 0-0.57812 0.11719-0.78516 0.32812-0.20703 0.20703-0.32422 0.48828-0.32422 0.78516v8.7617c0 0.29297 0.11719 0.57812 0.32422 0.78516 0.20703 0.21094 0.49219 0.32422 0.78516 0.32422h8.7617c0.61328 0 1.1133-0.49609 1.1133-1.1094v-8.7617c0-0.29297-0.11719-0.57422-0.32812-0.78516-0.20703-0.20703-0.48828-0.32422-0.78516-0.32422zm-1.1094 8.7617h-6.5391v-6.543h6.5391zm1.1094 4.0938h-8.7617c-0.29297 0-0.57812 0.11719-0.78516 0.32422-0.20703 0.20703-0.32422 0.49219-0.32422 0.78516v8.7617c0 0.29688 0.11719 0.57812 0.32422 0.78906 0.20703 0.20703 0.49219 0.32422 0.78516 0.32422h8.7617c0.61328 0 1.1133-0.5 1.1133-1.1133v-8.7578c0-0.29688-0.11719-0.57812-0.32812-0.78516-0.20703-0.21094-0.48828-0.32812-0.78516-0.32812zm-1.1094 8.7617h-6.5391v-6.5391h6.5391z"/>
<text x="0.0" y="117.5" font-size="5.0" font-weight="bold" font-family="Arbeit Regular, Helvetica, Arial-Unicode, Arial, Sans-serif" fill="#000000">Created by kholifah rokhman</text><text x="0.0" y="122.5" font-size="5.0" font-weight="bold" font-family="Arbeit Regular, Helvetica, Arial-Unicode, Arial, Sans-serif" fill="#000000">from Noun Project</text></svg>