<svg xmlns="http://www.w3.org/2000/svg" version="1.1" viewBox="-5.0 -10.0 110.0 135.0">
 <path d="m13.52 71.332 25.621-36.805c1.0508-1.5117 2.2891-2.7383 3.6406-3.6797 2.207-1.5352 4.7148-2.3047 7.2227-2.3047 2.5117 0 5.0156 0.76953 7.2227 2.3047 1.3477 0.94141 2.5859 2.168 3.6367 3.6797l25.621 36.805c1.6641 2.3867 2.4336 5.0117 2.4336 7.5273 0 1.8945-0.44141 3.7344-1.2695 5.375-0.83203 1.6484-2.0547 3.0898-3.6172 4.1758-1.9141 1.332-4.332 2.1367-7.1445 2.1367h-53.766c-2.8164 0-5.2344-0.80469-7.1484-2.1367-1.5586-1.0859-2.7852-2.5273-3.6172-4.1758-0.82812-1.6367-1.2695-3.4805-1.2695-5.3711 0-2.5195 0.77344-5.1445 2.4336-7.5312zm12.684-53.605c-0.41406-0.71484-0.17188-1.6328 0.54297-2.043 0.71484-0.41406 1.6328-0.17188 2.043 0.54297l5.8828 10.188c0.41406 0.71484 0.17188 1.6328-0.54297 2.043-0.71484 0.41406-1.6328 0.17188-2.043-0.54297zm-15.922 17.016c-0.71484-0.41016-0.96094-1.3242-0.55078-2.0391 0.41016-0.71484 1.3242-0.96094 2.0391-0.55078l10.188 5.8789c0.71484 0.41016 0.96094 1.3242 0.55078 2.0391-0.41016 0.71484-1.3242 0.96094-2.0391 0.55078zm-5.2852 22.703c-0.82812 0-1.5-0.67187-1.5-1.5 0-0.82812 0.67188-1.5 1.5-1.5h11.762c0.82813 0 1.5 0.67188 1.5 1.5 0 0.82813-0.67187 1.5-1.5 1.5zm90-3c0.82812 0 1.5 0.67188 1.5 1.5 0 0.82813-0.67188 1.5-1.5 1.5h-11.762c-0.82812 0-1.5-0.67187-1.5-1.5 0-0.82812 0.67188-1.5 1.5-1.5zm-6.7734-22.293c0.71484-0.41016 1.6289-0.16406 2.0391 0.55078 0.41016 0.71484 0.16406 1.6289-0.55078 2.0391l-10.188 5.8828c-0.71484 0.41016-1.6289 0.16406-2.0391-0.55078-0.41016-0.71484-0.16406-1.6289 0.55078-2.0391zm-17.023-15.922c0.41016-0.71484 1.3242-0.96094 2.0391-0.55078 0.71484 0.41016 0.96094 1.3242 0.55078 2.0391l-5.8789 10.188c-0.41016 0.71484-1.3242 0.96094-2.0391 0.55078-0.71484-0.41016-0.96094-1.3242-0.55078-2.0391zm-22.703-5.2852c0-0.82812 0.67188-1.5 1.5-1.5s1.5 0.67188 1.5 1.5v11.762c0 0.82812-0.67188 1.5-1.5 1.5s-1.5-0.67188-1.5-1.5zm1.5 58.207c1.3906 0 2.6523 0.56641 3.5625 1.4766s1.4766 2.1719 1.4766 3.5625c0 1.3828-0.56641 2.6445-1.4805 3.5547-0.90625 0.91406-2.168 1.4805-3.5586 1.4805s-2.6523-0.56641-3.5625-1.4766l-0.089844-0.097656c-0.85938-0.90234-1.3867-2.125-1.3867-3.4609 0-1.3906 0.56641-2.6523 1.4766-3.5625s2.1719-1.4766 3.5625-1.4766zm1.4414 3.5977c-0.36719-0.36719-0.87891-0.59766-1.4414-0.59766s-1.0742 0.23047-1.4414 0.59766c-0.36719 0.36719-0.59766 0.87891-0.59766 1.4414 0 0.53516 0.20312 1.0195 0.53516 1.3789l0.0625 0.058594c0.36719 0.36719 0.87891 0.59766 1.4414 0.59766s1.0742-0.23047 1.4414-0.59766c0.37109-0.36328 0.59766-0.875 0.59766-1.4375s-0.23047-1.0742-0.59766-1.4414zm-1.3984-28.82 0.23438 0.007812c1.25 0.066406 2.4141 0.60938 3.2578 1.4414 0.87109 0.85938 1.4219 2.0273 1.4219 3.3242l-0.80469 14.398c-0.066407 1.1914-0.32422 2.3086-0.90234 3.1797-0.6875 1.043-1.7266 1.6914-3.25 1.6914-1.5195 0-2.5625-0.64844-3.25-1.6875-0.57812-0.87109-0.83594-1.9883-0.90234-3.1836-0.25781-4.6055-0.79688-9.8594-0.79688-14.398-0.007813-1.293 0.54297-2.4648 1.418-3.3242 0.84766-0.83203 2.0078-1.375 3.2617-1.4414l0.31641-0.007812zm0.070313 2.9922h-0.22266c-0.50781 0.027344-0.98047 0.25-1.3242 0.58984-0.32031 0.3125-0.51953 0.73438-0.51953 1.1914-0.21094 3.6445 0.57031 10.281 0.79297 14.234 0.039062 0.70312 0.16016 1.3164 0.41016 1.6953 0.13672 0.21094 0.37891 0.33984 0.75391 0.33984s0.61328-0.13281 0.75391-0.33984c0.25-0.37891 0.375-0.98828 0.41016-1.6914l0.79297-14.234c0-0.45703-0.20312-0.87891-0.51953-1.1914-0.34375-0.33984-0.81641-0.5625-1.3242-0.58984zm-32.289 27.398 25.621-36.805c0.68359-0.98438 1.4766-1.7734 2.332-2.3711 1.3086-0.91016 2.7695-1.3672 4.2305-1.3672 1.4688 0.007812 2.9258 0.46094 4.2266 1.3672 0.85547 0.59375 1.6484 1.3867 2.332 2.3672l25.621 36.805c0.96875 1.3906 1.4727 3.0273 1.4727 4.5938 0 0.99609-0.20703 1.9805-0.625 2.8672l-0.042969 0.085937c-0.42969 0.87891-1.0664 1.6484-1.9141 2.2383-1.0703 0.74219-2.4688 1.1992-4.1875 1.1992h-53.766c-1.7227 0-3.1211-0.45312-4.1914-1.1992-0.87891-0.60937-1.5273-1.4141-1.957-2.3203-0.41406-0.87891-0.61719-1.8594-0.61719-2.8633-0.007813-1.5664 0.5-3.2031 1.4688-4.5977zm28.082-35.094-25.621 36.805c-0.61719 0.88281-0.9375 1.9141-0.9375 2.8906-0.007812 0.5625 0.10547 1.1055 0.33203 1.5859 0.21094 0.44531 0.53125 0.83984 0.96094 1.1367 0.58984 0.41016 1.4141 0.66016 2.4844 0.66016h53.766c1.0703 0 1.8906-0.25 2.4805-0.66016 0.41406-0.28516 0.72266-0.66016 0.92969-1.0742l0.03125-0.066406c0.22266-0.46875 0.33203-1.0156 0.33203-1.5859 0-0.97656-0.32031-2.0039-0.93359-2.8828l-25.621-36.805c-0.47266-0.67969-1.0117-1.2227-1.582-1.6172-0.79688-0.55469-1.668-0.83594-2.5195-0.83594-0.85938 0.007812-1.7266 0.28516-2.5195 0.83594-0.56641 0.39453-1.1055 0.9375-1.582 1.6172zm-4.3008-2.9922-25.621 36.805c-1.293 1.8594-1.8984 3.8867-1.8984 5.8242 0 1.4297 0.32422 2.8086 0.94141 4.0234 0.60937 1.2031 1.5078 2.2617 2.6562 3.0625 1.4336 0.99609 3.2734 1.5977 5.4375 1.5977h53.766c2.1641 0 4-0.60156 5.4336-1.5977 1.1484-0.79688 2.0469-1.8594 2.6562-3.0664 0.61328-1.2148 0.94141-2.5938 0.94141-4.0234 0-1.9336-0.60156-3.9609-1.8945-5.8164l-25.621-36.805c-0.84375-1.2109-1.8242-2.1875-2.8867-2.9258-1.6914-1.1758-3.6055-1.7656-5.5117-1.7656s-3.8203 0.58984-5.5117 1.7656c-1.0625 0.74219-2.0469 1.7188-2.8867 2.9258z"/>
<text x="0.0" y="117.5" font-size="5.0" font-weight="bold" font-family="Arbeit Regular, Helvetica, Arial-Unicode, Arial, Sans-serif" fill="#000000">Created by Rofidatul Hasanah</text><text x="0.0" y="122.5" font-size="5.0" font-weight="bold" font-family="Arbeit Regular, Helvetica, Arial-Unicode, Arial, Sans-serif" fill="#000000">from Noun Project</text></svg>