<svg xmlns="http://www.w3.org/2000/svg" version="1.1" viewBox="-5.0 -10.0 110.0 135.0">
 <path d="m95.773 44.73c0.60547 0 1.0977-0.49219 1.0977-1.0977v-5.0039c0-0.60547-0.49219-1.0977-1.0977-1.0977h-22.949v-7.5352h3.1211c0.60547 0 1.0977-0.49219 1.0977-1.0977v-5.0039c0-0.60547-0.49219-1.0977-1.0977-1.0977h-8.8164l0.003906-18.574c0-0.60547-0.49219-1.0977-1.0977-1.0977h-32.066c-0.60547 0-1.0977 0.49219-1.0977 1.0977v18.574h-8.8164c-0.60547 0-1.0977 0.49219-1.0977 1.0977v5.0039c0 0.60547 0.49219 1.0977 1.0977 1.0977h3.1211v7.5352h-22.949c-0.60547 0-1.0977 0.49219-1.0977 1.0977v5.0039c0 0.60547 0.49219 1.0977 1.0977 1.0977h3.2617v45.605c-2.4922 0.55859-4.3594 2.7852-4.3594 5.4414 0 0.60547 0.49219 1.0977 1.0977 1.0977h91.551c0.60547 0 1.0977-0.49219 1.0977-1.0977 0-2.6562-1.8672-4.8828-4.3594-5.4414v-45.605h3.2617zm-1.0977-5.0039v2.8086h-21.852v-2.8086zm-59.613-34.406h29.871v17.477h-29.871zm-9.9102 19.672h49.699v2.8086h-49.699zm45.477 5.0039v60.203h-10.156v-21.121c0-0.60547-0.49219-1.0977-1.0977-1.0977h-18.746c-0.60547 0-1.0977 0.49219-1.0977 1.0977v21.121h-10.156l-0.003906-60.203zm-28.906 60.203v-20.023h7.1797v20.023zm9.375-20.023h7.1797v20.023h-7.1797zm-45.773-30.449h21.852v2.8086h-21.852zm21.852 5.0039v45.469h-17.492v-45.469zm67.316 49.949h-88.984c0.45703-1.3281 1.7188-2.2852 3.1992-2.2852h82.59c1.4805 0 2.7422 0.95703 3.1992 2.2852zm-4.1758-4.4805h-17.492v-45.469h17.492z"/>
 <path d="m56.457 10.75h-3.1484v-3.1484c0-0.60547-0.49219-1.0977-1.0977-1.0977h-4.4219c-0.60547 0-1.0977 0.49219-1.0977 1.0977v3.1484h-3.1484c-0.60547 0-1.0977 0.49219-1.0977 1.0977v4.4258c0 0.60547 0.49219 1.0977 1.0977 1.0977h3.1484v3.1484c0 0.60547 0.49219 1.0977 1.0977 1.0977h4.4219c0.60547 0 1.0977-0.49219 1.0977-1.0977v-3.1484h3.1484c0.60547 0 1.0977-0.49219 1.0977-1.0977v-4.4258c0-0.60547-0.49219-1.0977-1.0977-1.0977zm-1.0977 4.4258h-3.1484c-0.60547 0-1.0977 0.49219-1.0977 1.0977v3.1484h-2.2266v-3.1484c0-0.60547-0.49219-1.0977-1.0977-1.0977h-3.1484v-2.2305h3.1484c0.60547 0 1.0977-0.49219 1.0977-1.0977v-3.1484h2.2266v3.1484c0 0.60547 0.49219 1.0977 1.0977 1.0977h3.1484z"/>
 <path d="m32.898 44.73h5.0039c0.60547 0 1.0977-0.49219 1.0977-1.0977v-5.0039c0-0.60547-0.49219-1.0977-1.0977-1.0977h-5.0039c-0.60547 0-1.0977 0.49219-1.0977 1.0977v5.0039c0 0.60547 0.49219 1.0977 1.0977 1.0977zm1.0977-5.0039h2.8086v2.8086h-2.8086z"/>
 <path d="m32.898 54.465h5.0039c0.60547 0 1.0977-0.49219 1.0977-1.0977v-5.0039c0-0.60547-0.49219-1.0977-1.0977-1.0977h-5.0039c-0.60547 0-1.0977 0.49219-1.0977 1.0977v5.0039c0 0.60547 0.49219 1.0977 1.0977 1.0977zm1.0977-5.0039h2.8086v2.8086h-2.8086z"/>
 <path d="m42.629 44.73h5.0039c0.60547 0 1.0977-0.49219 1.0977-1.0977v-5.0039c0-0.60547-0.49219-1.0977-1.0977-1.0977h-5.0039c-0.60547 0-1.0977 0.49219-1.0977 1.0977v5.0039c0 0.60547 0.49219 1.0977 1.0977 1.0977zm1.0977-5.0039h2.8086v2.8086h-2.8086z"/>
 <path d="m42.629 54.465h5.0039c0.60547 0 1.0977-0.49219 1.0977-1.0977v-5.0039c0-0.60547-0.49219-1.0977-1.0977-1.0977h-5.0039c-0.60547 0-1.0977 0.49219-1.0977 1.0977v5.0039c0 0.60547 0.49219 1.0977 1.0977 1.0977zm1.0977-5.0039h2.8086v2.8086h-2.8086z"/>
 <path d="m52.367 44.73h5.0039c0.60547 0 1.0977-0.49219 1.0977-1.0977v-5.0039c0-0.60547-0.49219-1.0977-1.0977-1.0977h-5.0039c-0.60547 0-1.0977 0.49219-1.0977 1.0977v5.0039c0 0.60547 0.49219 1.0977 1.0977 1.0977zm1.0977-5.0039h2.8086v2.8086h-2.8086z"/>
 <path d="m52.367 54.465h5.0039c0.60547 0 1.0977-0.49219 1.0977-1.0977v-5.0039c0-0.60547-0.49219-1.0977-1.0977-1.0977h-5.0039c-0.60547 0-1.0977 0.49219-1.0977 1.0977v5.0039c0 0.60547 0.49219 1.0977 1.0977 1.0977zm1.0977-5.0039h2.8086v2.8086h-2.8086z"/>
 <path d="m62.098 44.73h5.0039c0.60547 0 1.0977-0.49219 1.0977-1.0977v-5.0039c0-0.60547-0.49219-1.0977-1.0977-1.0977h-5.0039c-0.60547 0-1.0977 0.49219-1.0977 1.0977v5.0039c0 0.60547 0.49219 1.0977 1.0977 1.0977zm1.0977-5.0039h2.8086v2.8086h-2.8086z"/>
 <path d="m62.098 54.465h5.0039c0.60547 0 1.0977-0.49219 1.0977-1.0977v-5.0039c0-0.60547-0.49219-1.0977-1.0977-1.0977h-5.0039c-0.60547 0-1.0977 0.49219-1.0977 1.0977v5.0039c0 0.60547 0.49219 1.0977 1.0977 1.0977zm1.0977-5.0039h2.8086v2.8086h-2.8086z"/>
 <path d="m32.898 64.195h5.0039c0.60547 0 1.0977-0.49219 1.0977-1.0977v-5.0039c0-0.60547-0.49219-1.0977-1.0977-1.0977h-5.0039c-0.60547 0-1.0977 0.49219-1.0977 1.0977v5.0039c0 0.60547 0.49219 1.0977 1.0977 1.0977zm1.0977-5.0039h2.8086v2.8086h-2.8086z"/>
 <path d="m42.629 64.195h5.0039c0.60547 0 1.0977-0.49219 1.0977-1.0977v-5.0039c0-0.60547-0.49219-1.0977-1.0977-1.0977h-5.0039c-0.60547 0-1.0977 0.49219-1.0977 1.0977v5.0039c0 0.60547 0.49219 1.0977 1.0977 1.0977zm1.0977-5.0039h2.8086v2.8086h-2.8086z"/>
 <path d="m52.367 64.195h5.0039c0.60547 0 1.0977-0.49219 1.0977-1.0977v-5.0039c0-0.60547-0.49219-1.0977-1.0977-1.0977h-5.0039c-0.60547 0-1.0977 0.49219-1.0977 1.0977v5.0039c0 0.60547 0.49219 1.0977 1.0977 1.0977zm1.0977-5.0039h2.8086v2.8086h-2.8086z"/>
 <path d="m62.098 64.195h5.0039c0.60547 0 1.0977-0.49219 1.0977-1.0977v-5.0039c0-0.60547-0.49219-1.0977-1.0977-1.0977h-5.0039c-0.60547 0-1.0977 0.49219-1.0977 1.0977v5.0039c0 0.60547 0.49219 1.0977 1.0977 1.0977zm1.0977-5.0039h2.8086v2.8086h-2.8086z"/>
 <path d="m15.93 54.465h5.0039c0.60547 0 1.0977-0.49219 1.0977-1.0977v-5.0039c0-0.60547-0.49219-1.0977-1.0977-1.0977h-5.0039c-0.60547 0-1.0977 0.49219-1.0977 1.0977v5.0039c0 0.60547 0.49219 1.0977 1.0977 1.0977zm1.0977-5.0039h2.8086v2.8086h-2.8086z"/>
 <path d="m15.93 64.195h5.0039c0.60547 0 1.0977-0.49219 1.0977-1.0977v-5.0039c0-0.60547-0.49219-1.0977-1.0977-1.0977h-5.0039c-0.60547 0-1.0977 0.49219-1.0977 1.0977v5.0039c0 0.60547 0.49219 1.0977 1.0977 1.0977zm1.0977-5.0039h2.8086v2.8086h-2.8086z"/>
 <path d="m15.93 73.93h5.0039c0.60547 0 1.0977-0.49219 1.0977-1.0977v-5.0039c0-0.60547-0.49219-1.0977-1.0977-1.0977h-5.0039c-0.60547 0-1.0977 0.49219-1.0977 1.0977v5.0039c0 0.60547 0.49219 1.0977 1.0977 1.0977zm1.0977-5.0039h2.8086v2.8086h-2.8086z"/>
 <path d="m15.93 83.664h5.0039c0.60547 0 1.0977-0.49219 1.0977-1.0977v-5.0039c0-0.60547-0.49219-1.0977-1.0977-1.0977h-5.0039c-0.60547 0-1.0977 0.49219-1.0977 1.0977v5.0039c0 0.60547 0.49219 1.0977 1.0977 1.0977zm1.0977-5.0039h2.8086v2.8086h-2.8086z"/>
 <path d="m79.066 54.465h5.0039c0.60547 0 1.0977-0.49219 1.0977-1.0977v-5.0039c0-0.60547-0.49219-1.0977-1.0977-1.0977h-5.0039c-0.60547 0-1.0977 0.49219-1.0977 1.0977v5.0039c0 0.60547 0.49219 1.0977 1.0977 1.0977zm1.0977-5.0039h2.8086v2.8086h-2.8086z"/>
 <path d="m79.066 64.195h5.0039c0.60547 0 1.0977-0.49219 1.0977-1.0977v-5.0039c0-0.60547-0.49219-1.0977-1.0977-1.0977h-5.0039c-0.60547 0-1.0977 0.49219-1.0977 1.0977v5.0039c0 0.60547 0.49219 1.0977 1.0977 1.0977zm1.0977-5.0039h2.8086v2.8086h-2.8086z"/>
 <path d="m79.066 73.93h5.0039c0.60547 0 1.0977-0.49219 1.0977-1.0977v-5.0039c0-0.60547-0.49219-1.0977-1.0977-1.0977h-5.0039c-0.60547 0-1.0977 0.49219-1.0977 1.0977v5.0039c0 0.60547 0.49219 1.0977 1.0977 1.0977zm1.0977-5.0039h2.8086v2.8086h-2.8086z"/>
 <path d="m79.066 83.664h5.0039c0.60547 0 1.0977-0.49219 1.0977-1.0977v-5.0039c0-0.60547-0.49219-1.0977-1.0977-1.0977h-5.0039c-0.60547 0-1.0977 0.49219-1.0977 1.0977v5.0039c0 0.60547 0.49219 1.0977 1.0977 1.0977zm1.0977-5.0039h2.8086v2.8086h-2.8086z"/>
<text x="0.0" y="117.5" font-size="5.0" font-weight="bold" font-family="Arbeit Regular, Helvetica, Arial-Unicode, Arial, Sans-serif" fill="#000000">Created by santerabos</text><text x="0.0" y="122.5" font-size="5.0" font-weight="bold" font-family="Arbeit Regular, Helvetica, Arial-Unicode, Arial, Sans-serif" fill="#000000">from Noun Project</text></svg>