<?xml version="1.0" encoding="UTF-8"?><svg id="Layer_1" xmlns="http://www.w3.org/2000/svg" viewBox="0 0 1836.4332 1910.3626"><defs><style>.cls-1{fill:#004a70;}.cls-2{fill:#00a79d;stroke-width:2px;}.cls-2,.cls-3,.cls-4,.cls-5,.cls-6{stroke-miterlimit:10;}.cls-2,.cls-4,.cls-5{stroke:#fff;}.cls-3{fill:#fff;stroke:#00a79d;stroke-width:12px;}.cls-4{fill:#303030;stroke-width:20px;}.cls-5{stroke-width:10px;}.cls-5,.cls-6{fill:none;}.cls-6{stroke:#231f20;}</style></defs><g id="Layer_11"><path class="cls-2" d="M1617.3599,545.6375v-184.6c.1899-4.83-.04-15.7301-6.36-27.39-5.74-10.58-13.63-16.51-17.65-19.14C1088.9499,107.0875,877.7099,19.5275,866.3999,14.0775c-6.58-3.1699-12.24-5.4199-16.44-6.97-8.96-3.2899-14.21-5.23-21.55-5.98-2.52-.26-2.11-.05-15.2,0-15.37.0601-14.32-.23-17.45,0-4.01.29-8.8.99-25.04,6.1901-8.81,2.8199-18.07,6.0299-21.73,7.45-17.05,6.64-310.97,129.7899-711.97,298.24-4.92,2.09-15.85,7.52-24.67,19.51-9.05,12.2999-10.88,24.7001-11.35,30.02v577.7999c2.5,39.97,8.12,91.9401,21.01,151.58,9.02,41.71,27.76,125.97,73.54,217.61,76.2,152.5599,199.6,270.14,199.61,270.14,60.68,57.39,136.32,120.95,228.12,183.1,90.79,61.46,176.98,107.73,252.13,142.5699h87.05c98.23-43.45,227.51-112.98,360.1901-223.62,113.4-94.5599,195.86-191.29,253.63-270.14,30.66-45.5601,66.41-108.29,94.55-187.6,5.28-14.89,28.97-83.7,42.02-178.59,5.0601-36.8,7.26-68.35,8.25-92.22-1.25-135.85-2.5-271.6901-3.75-407.54l.0098.0101Z"/><path class="cls-4" d="M1690.1533,685.9975c.08-52.65.16-105.3.24-157.95h-153.3101c-.08,52.65-.16,105.3-.24,157.95h-134.38v151.42h136.28c-.3101,45.93-.62,91.87-.9301,137.8,50.15.12,100.3.25,150.45.37v-140.06h138.17v-149.53h-136.28.0001Z"/><path class="cls-6" d="M1498.66,1556.5275c-27.92,43.72-70.79,100.49-134,155.4399-79.9401,69.5-159.74,107.6801-214.4,128.64-35.5699,15.1801-78.6899,30.64-128.64,42.88-49.99,12.25-95.41,18.46-134,21.4399-48.54,1.37-104.69-.28-166.53-8.04-79.31-9.95-147.74-27.4-203.3-45.5601-46.87-18.76-96.85-40.87-149.01-67-51.18-25.64-98-51.9-140.43-77.72-67.89-39.3101-135.79-78.61-203.68-117.92,4.49-10.1801,16.94-34.6801,44.7-53.12,25.91-17.21,51.32-19.95,62.5-20.49,20.55-.7,42.94-.16,66.84,2.33,81.14,8.47,145.91,36,190.43,60.55,29.72,18.49,67.22,38.6,112.24,56.0699,42.71,16.5699,81.94,26.78,115.02,33.23,37.6.62,81.81-1.55,130.65-9.61,77.92-12.85,141.69-36.41,188.8-58.25-34.67-.26-78.28-3.99-126.98-16.5601-29.17-7.53-54.82-16.85-76.7-26.3199-3.78-1.6801-35.99-16.67-44.86-53.6-8.21-34.16,9.94-60.46,12.7-64.3199,108.99-8.9301,217.97-17.87,326.96-26.8,29.77-2.91,62.65-4.72,98.1899-4.5601,32.14.15,62.0601,1.89,89.4,4.5601,24.35,1.29,60.59,5.9301,100.8199,22.46,19.2,7.89,33.55,16.12,49.26,25.78,31.27,19.24,77.46,50.02,134,96.48h0l.0201.0103Z"/><path class="cls-5" d="M1498.66,1556.5275c-27.92,43.72-70.79,100.49-134,155.4399-79.9401,69.5-159.74,107.6801-214.4,128.64-35.5699,15.1801-78.6899,30.64-128.64,42.88-49.99,12.25-95.41,18.46-134,21.4399-48.54,1.37-104.69-.28-166.53-8.04-79.31-9.95-147.74-27.4-203.3-45.5601-46.87-18.76-96.85-40.87-149.01-67-51.18-25.64-98-51.9-140.43-77.72-67.89-39.3101-135.79-78.61-203.68-117.92,4.49-10.1801,16.94-34.6801,44.7-53.12,25.91-17.21,51.32-19.95,62.5-20.49,20.55-.7,42.94-.16,66.84,2.33,81.14,8.47,145.91,36,190.43,60.55,29.72,18.49,67.22,38.6,112.24,56.0699,42.71,16.5699,81.94,26.78,115.02,33.23,37.6.62,81.81-1.55,130.65-9.61,77.92-12.85,141.69-36.41,188.8-58.25-34.67-.26-78.28-3.99-126.98-16.5601-29.17-7.53-54.82-16.85-76.7-26.3199-3.78-1.6801-35.99-16.67-44.86-53.6-8.21-34.16,9.94-60.46,12.7-64.3199,108.99-8.9301,217.97-17.87,326.96-26.8,29.77-2.91,62.65-4.72,98.1899-4.5601,32.14.15,62.0601,1.89,89.4,4.5601,24.35,1.29,60.59,5.9301,100.8199,22.46,19.2,7.89,33.55,16.12,49.26,25.78,31.27,19.24,77.46,50.02,134,96.48h0l.0201.0103Z"/></g><path class="cls-3" d="M596.5878,818.2355c7.0316,4.9127,14.0633,9.825,21.0949,14.7378,69.9385,61.3736,144.2173,132.6436,219.4549,214.7398,65.1872,71.1295,122.0748,140.5438,171.5281,206.1011-7.4085-33.2268-13.8152-70.8484-17.6576-112.3066-2.993-32.2967-4.017-62.4673-3.7837-90.0921,5.9453-8.8809,14.8531-20.0885,27.7473-30.8531,19.8912-16.6057,40.1127-24.5122,52.9719-28.3854,22.2819-.4113,44.5634-.8226,66.8453-1.2338,3.8992-.2196,10.5664-1.1181,17.6576-4.9367,10.9253-5.8835,15.939-14.9728,17.6571-18.512,0-27.9737,0-55.9474,0-83.9211l21.4411-28.3854,21.4408-14.8096c2.62-5.2711,7.5492-17.0088,6.4499-32.397-.951-13.315-5.9695-23.117-8.9722-28.0754,15.9757.4113,31.9511.8226,47.9268,1.2338,1.8611-.3209,10.4082-1.9967,16.3962-9.8729,5.6287-7.4035,5.2086-15.3032,5.0449-17.2778-15.1348-39.4922-30.2696-78.9849-45.4045-118.4771l1.2612-51.8337,3.7837-51.8337c1.7819-19.2424,2.1798-50.3708-8.8286-86.3897-12.9167-42.2627-35.3875-71.1399-49.1882-86.3897,4.0539-7.9585,10.4618-23.2029,10.6096-43.2466.1753-23.7755-8.5528-41.3918-13.1321-49.3136-16.6528-18.2327-45.0019-44.6707-87.025-65.4091-54.7667-27.0269-105.2061-30.7763-132.4297-30.8536-31.5472-2.4857-67.5834-3.4421-107.2051-1.2338-32.2908,1.7997-61.8575,5.4162-88.2866,9.8729-18.15,6.8123-39.9104,16.6184-63.0616,30.8536-23.0117,14.1493-41.3926,28.9829-55.4942,41.9603-15.0882,17.5277-32.4104,40.872-47.9272,70.3458-19.8552,37.7147-29.932,72.5075-35.3143,98.7312-2.3533,24.4616-3.5879,52.226-2.5228,82.6869,1.2124,34.6762,5.1573,65.7752,10.0902,92.5602,6.4686,27.7247,15.3695,58.5096,27.7469,91.3264,9.2062,24.4082,19.0917,46.6426,29.0087,66.6434,4.204,9.4617,8.408,18.9233,12.612,28.385-14.1787,11.9537-28.357,23.9079-42.5357,35.8617Z"/><path class="cls-3" d="M1181.4548,359.0648c-18.2705-16.246-47.5092-38.4419-88.2866-55.5361-44.3809-18.6047-84.1209-23.4903-109.7275-24.6826-12.7894-.997-36.7267-1.2031-63.9752,9.1091-28.9662,10.9622-47.1822,28.3262-55.842,37.7879,11.7446,3.1122,39.964,12.2448,64.323,38.2584,26.1451,27.9208,32.3255,58.7175,34.0533,70.3458-1.2152,11.1063-3.7218,24.6383-8.8288,39.4922-7.8371,22.7943-18.8451,40.1123-27.7469,51.8337-5.8857,18.1008-11.7719,36.2015-17.6576,54.3023h-18.9185c-.4974-6.6528-2.8701-26.5758-18.9185-44.4289-13.097-14.5701-28.4771-20.1694-35.3143-22.2145-2.9274-1.5705-21.1739-10.9725-42.8821-3.7024-19.9268,6.6731-28.5843,22.6434-30.2696,25.9169-2.4438,10.2322-4.5301,22.7256-5.0451,37.0241-.7325,20.3402,1.9556,37.6324,5.0451,50.5995,5.8857,18.512,11.7714,37.0241,17.6571,55.5361l-74.4127,86.3897c-21.8616,5.7593-43.7228,11.5185-65.5844,17.2778"/><path class="cls-3" d="M1208.7649,781.0288c-5.0252.2133-12.7908.6047-22.2653,1.345-29.2574,2.286-37.8244,4.7279-51.7999,4.717-10.7345-.0081-25.988-1.4964-44.5796-8.4195-4.5915,4.3966-9.22,8.9546-13.8734,13.6784-2.611,2.6507-5.1684,5.291-7.6727,7.9191,9.4408,9.6745,25.7682,23.9504,49.8191,34.5555,30.7066,13.5401,58.4509,14.2397,73.1516,13.5758,3.3325-.4682,14.4545-2.4433,21.4408-11.7246,4.4449-5.9048,5.1199-11.9822,5.5982-16.8579,1.6785-17.1083-5.2841-31.315-9.8188-38.789Z"/><path class="cls-3" d="M831.6682,1411.0987c-26.928-75.1451-53.8561-150.2906-80.7841-225.4357-1.8916-17.9498-1.2976-39.4412,5.7709-62.2187,27.7422-89.3957,130.8762-120.1683,143.4753-123.7243,20.8804-6.5823,41.7609-13.1641,62.6413-19.7463,2.1512-1.1109,9.6103-5.291,13.4531-14.3979,4.4444-10.5328.7845-19.9131,0-21.8032-4.7031-10.5848-9.4064-21.17-14.1095-31.7548-.988-7.488-1.5406-17.3297-.1845-28.7181,1.1958-10.0406,3.5463-18.5188,5.8857-25.0939,2.4715-9.3862,4.6534-20.2887,5.8857-32.4991,1.9346-19.1687.9646-35.9747-.8408-49.3656,6.6407.7344,24.9733,1.8657,42.8821-9.0504,8.5011-5.1817,14.1577-11.4019,17.6571-16.0435-26.9062-38.944-53.8127-77.8876-80.719-116.8316,1.9434-10.6914,3.4863-23.1735,3.8888-37.1271.364-12.619-.2734-24.058-1.3662-34.0417-4.2042-17.4152-8.4083-34.8299-12.6125-52.245,3.1535-3.0412,7.17-7.2326,11.3791-12.5711.0002-.0005,11.6989-14.8386,18.5155-32.6117,7.6877-20.0442,9.9618-53.0296-1.3064-89.7495-25.4721-36.1161-54.019-54.8944-71.0496-64.1753-37.1881-20.2652-72.3121-24.0417-108.8868-27.9737-30.9648-3.3291-57.0928-2.8301-75.6741-1.6456-19.1712-7.2982-42.9064-14.6555-70.629-19.7459-30.9715-5.6869-58.4952-6.9976-80.7192-6.5823-24.0137.3376-58.5001,3.4764-97.5355,16.4552-44.9814,14.9556-77.5611,36.846-97.5355,52.6567-19.4077,14.7351-45.1948,37.6437-68.9475,70.7571-26.149,36.4542-39.7633,71.2389-47.0859,95.4397-1.6817,41.1378-3.3634,82.276-5.0451,123.4138-8.5981,11.0638-19.658,28.1278-26.9062,51.0112-11.8312,37.3518-6.9721,69.5748-3.3634,85.5667,6.0448,21.5383,16.8669,50.9416,36.9962,82.2403,23.2507,36.1523,49.8002,60.655,68.9475,75.729,30.2696,15.9065,60.5393,31.8135,90.8089,47.7201-11.2109,7.6792-22.4219,15.3579-33.6328,23.037,8.9687,7.6792,17.9375,15.3583,26.9062,23.0375,68.1577,49.9667,142.513,110.4658,218.6141,183.0637,82.0741,78.2961,149.8649,155.1017,205.2261,225.024"/><path class="cls-3" d="M414.5546,956.9366c17.0221,2.8071,37.6107,4.8834,60.9598,4.525,18.9363-.2906,35.8999-2.1242,50.4493-4.525-7.0529-1.3938-17.0514-4.2095-27.7471-10.2847-14.2683-8.1044-23.1586-18.2508-27.9575-24.6826,11.0262,5.9572,30.2274,14.5507,55.7046,17.2778,27.4684,2.94,49.5244-2.2991,61.8004-6.1705-9.0064-3.0932-24.7363-9.9023-38.6779-24.6826-7.2875-7.7262-12.0714-15.4934-15.2004-21.7114,5.9328,4.2881,14.7203,9.7211,26.2723,13.9261,7.318,2.6638,21.3743,6.8837,38.9571,6.5511,28.297-.5351,49.0577-12.5463,58.017-18.512-9.5777.9767-29.7124,1.5778-49.1882-9.8729-5.2037-3.0597-9.4821-6.4634-12.9543-9.7446,5.522,1.0553,30.3747,5.1934,53.3137-10.0017,12.8735-8.5279,19.591-19.4661,22.7022-25.5408-4.0507,2.5147-22.3962,13.2969-45.4045,8.2631-13.1714-2.8817-22.1002-9.684-26.4859-13.5758-10.204-17.9037-20.4081-35.8079-30.6121-53.7116-7.6413-6.7468-25.2232-24.138-32.4495-52.424-4.8292-18.903-3.0743-35.0034-1.2614-44.4289.4801-2.8464,4.4447-24.0715,25.2248-35.7898,22.1166-12.4717,44.3047-3.4737,46.6656-2.4686,8.0602,5.4027,18.9733,14.3812,26.4859,28.3854,11.4389,21.3232,6.5106,38.483,16.2549,42.4494,7.7725,3.1637,18.1246-4.8169,35.4558-18.1781,12.255-9.4477,21.4429-18.6083,27.7471-25.5056,6.5619-7.3551,14.1598-17.2597,20.9466-29.8855,9.1258-16.9768,13.4515-32.6709,15.6293-44.1627,1.1644-10.409.6889-18.8076,0-24.6826-1.3672-11.6577-4.2036-18.7371,0-24.683,2.9941-4.2353,7.869-5.503,10.09-6.1705,14.0792-4.2316,24.5283-15.3072,40.3594-32.0874,18.6553-19.7735,27.6268-43.8301,32.0165-60.4728.0436,10.5952-1.3097,31.4714-13.0979,54.3019-12.0797,23.395-29.0046,37.0033-37.8371,43.1951,9.4357-.9667,48.7436-6.0512,79.4578-39.4927,28.054-30.5449,31.0338-65.2536,31.531-75.282,2.5343,4.1128,15.5226,26.1234,8.4083,54.3019-7.1774,28.4279-29.4798,42.0024-33.633,44.4289,9.3401-2.3203,20.9949-6.0756,33.633-12.3415,12.9668-6.4286,23.1602-13.6115,30.69-19.7459,3.9239,5.7593,7.8475,11.5185,11.7714,17.2778"/><ellipse class="cls-3" cx="623.7095" cy="804.1093" rx="13.6634" ry="13.3698"/><path class="cls-1" d="M1498.66,1556.5275c-27.92,43.72-70.79,100.49-134,155.4399-79.9401,69.5-159.74,107.6801-214.4,128.64-35.5699,15.1801-78.6899,30.64-128.64,42.88-49.99,12.25-95.41,18.46-134,21.4399-48.54,1.37-104.69-.28-166.53-8.04-79.31-9.95-147.74-27.4-203.3-45.5601-46.87-18.76-96.85-40.87-149.01-67-51.18-25.64-98-51.9-140.43-77.72-67.89-39.3101-135.79-78.61-203.68-117.92,4.49-10.1801,16.94-34.6801,44.7-53.12,25.91-17.21,51.32-19.95,62.5-20.49,20.55-.7,42.94-.16,66.84,2.33,81.14,8.47,145.91,36,190.43,60.55,29.72,18.49,67.22,38.6,112.24,56.0699,42.71,16.5699,81.94,26.78,115.02,33.23,37.6.62,81.81-1.55,130.65-9.61,77.92-12.85,141.69-36.41,188.8-58.25-34.67-.26-78.28-3.99-126.98-16.5601-29.17-7.53-54.82-16.85-76.7-26.3199-3.78-1.6801-35.99-16.67-44.86-53.6-8.21-34.16,9.94-60.46,12.7-64.3199,108.99-8.9301,217.97-17.87,326.96-26.8,29.77-2.91,62.65-4.72,98.1899-4.5601,32.14.15,62.0601,1.89,89.4,4.5601,24.35,1.29,60.59,5.9301,100.8199,22.46,19.2,7.89,33.55,16.12,49.26,25.78,31.27,19.24,77.46,50.02,134,96.48h0l.0201.0103Z"/></svg>