<svg xmlns="http://www.w3.org/2000/svg" version="1.1" viewBox="-5.0 -10.0 110.0 135.0">
 <path d="m36.277 23.551c0 0.67578-0.54688 1.2188-1.2188 1.2188-0.67578 0-1.2188-0.54688-1.2188-1.2188v-11.566c0-4.543 3.7109-8.2578 8.2578-8.2578h45.918c4.543 0 8.2578 3.7148 8.2578 8.2578v68.262c0 4.543-3.7148 8.2578-8.2578 8.2578h-32.668c-0.67578 0-1.2188-0.54688-1.2188-1.2188 0-0.67578 0.54688-1.2188 1.2188-1.2188h32.668c3.1953 0 5.8164-2.6172 5.8164-5.8164l-0.003906-68.266c0-3.1953-2.6172-5.8164-5.8164-5.8164l-45.918 0.003906c-3.1953 0-5.8164 2.6211-5.8164 5.8164zm-10.086 33.074c-1.6562 0-3.0039 1.3516-3.0039 3.0039v2.1602h-2.1602c-1.6523 0-3.0039 1.3477-3.0039 3.0039v3.9414c0 1.6562 1.3516 3.0039 3.0039 3.0039h2.1602v2.1602c0 1.6562 1.3477 3.0039 3.0039 3.0039h3.9414c1.6562 0 3.0039-1.3477 3.0039-3.0039v-2.1602h2.1602c1.6562 0 3.0039-1.3477 3.0039-3.0039v-3.9414c0-1.6562-1.3477-3.0039-3.0039-3.0039h-2.1602v-2.1602c0-1.6562-1.3477-3.0039-3.0039-3.0039zm3.9414 2.4414h-3.9414c-0.30859 0-0.5625 0.25781-0.5625 0.5625v3.3828c0 0.67578-0.54688 1.2188-1.2188 1.2188h-3.3828c-0.30859 0-0.5625 0.25781-0.5625 0.5625v3.9414c0 0.30859 0.25781 0.5625 0.5625 0.5625h3.3828c0.67578 0 1.2188 0.54688 1.2188 1.2188v3.3828c0 0.30859 0.25781 0.5625 0.5625 0.5625h3.9414c0.30859 0 0.5625-0.25781 0.5625-0.5625v-3.3789c0-0.67578 0.54688-1.2188 1.2188-1.2188h3.3828c0.30859 0 0.5625-0.25781 0.5625-0.5625v-3.9414c0-0.30859-0.25781-0.5625-0.5625-0.5625h-3.3828c-0.67578 0-1.2188-0.54688-1.2188-1.2188v-3.3828c0-0.3125-0.25391-0.56641-0.5625-0.56641zm-23.961-7.1914h43.984v-1.0977c0-6.0898-4.9883-11.078-11.078-11.078l-21.832 0.003906c-6.0898 0-11.078 4.9883-11.078 11.078zm43.98 2.4414h-43.98v24.898h43.984zm0 27.34h-43.98v7.8945c0 2.3516 1.9297 4.2812 4.2812 4.2812h35.422c2.3516 0 4.2812-1.9297 4.2812-4.2812zm-31.684-50.668h10.809c0.67578 0 1.2188 0.54688 1.2188 1.2188 0 0.67578-0.54688 1.2188-1.2188 1.2188h-10.809v3.832h19.391v-6.8672c0-1.375-1.1289-2.5039-2.5039-2.5039l-14.383 0.003906c-1.375 0-2.5039 1.1289-2.5039 2.5039zm-2.4414 6.3281c-6.8984 0.625-12.297 6.4648-12.297 13.461v38.77c0 3.6992 3.0234 6.7227 6.7227 6.7227h35.422c3.6992 0 6.7227-3.0234 6.7227-6.7227l-0.003906-38.77c0-7-5.3984-12.84-12.297-13.465v-6.9258c0-2.7227-2.2227-4.9414-4.9414-4.9414l-14.383 0.003907c-2.7227 0-4.9414 2.2227-4.9414 4.9414zm47.809-25.801v69.207c0 0.67578 0.54687 1.2188 1.2188 1.2188 0.67578 0 1.2188-0.54688 1.2188-1.2188v-69.207c0-0.67578-0.54688-1.2188-1.2188-1.2188-0.67188 0-1.2188 0.54297-1.2188 1.2188zm10.293 61.594 12.059-6.9648c-2.6641-3.1797-7.4805-3.3984-10.418-0.46094-1.9258 1.9258-2.5898 4.8203-1.6406 7.4258zm13.281-4.8555-12.059 6.9648c2.6641 3.1797 7.4805 3.3984 10.418 0.46094 1.9258-1.9297 2.5898-4.8242 1.6406-7.4258zm-6.6406-7.082c-5.25 0-9.5078 4.2578-9.5078 9.5078s4.2578 9.5078 9.5078 9.5078 9.5078-4.2578 9.5078-9.5078-4.2578-9.5078-9.5078-9.5078zm-6.6367-12.625 12.062-6.9648c-2.6641-3.1836-7.4805-3.4023-10.422-0.46484-1.9297 1.9336-2.5938 4.8281-1.6406 7.4297zm13.273-4.8594-12.062 6.9648c2.6602 3.1797 7.4805 3.4023 10.422 0.46484 1.9297-1.9297 2.5977-4.8242 1.6406-7.4297zm-6.6367-7.0781c-5.25 0-9.5078 4.2578-9.5078 9.5078s4.2578 9.5078 9.5078 9.5078 9.5078-4.2578 9.5078-9.5078-4.2578-9.5078-9.5078-9.5078zm-6.6406-12.625 12.059-6.9648c-2.6641-3.1797-7.4805-3.3984-10.418-0.46094-1.9258 1.9258-2.5898 4.8203-1.6406 7.4258zm13.281-4.8555-12.059 6.9648c2.6641 3.1797 7.4805 3.3984 10.418 0.46094 1.9258-1.9297 2.5898-4.8242 1.6406-7.4258zm-6.6406-7.082c-5.25 0-9.5078 4.2578-9.5078 9.5078s4.2578 9.5078 9.5078 9.5078 9.5078-4.2578 9.5078-9.5078-4.2578-9.5078-9.5078-9.5078zm-38.07 11.938 12.059-6.9648c-2.6641-3.1797-7.4805-3.3984-10.418-0.46094-1.9258 1.9258-2.5938 4.8203-1.6406 7.4258zm13.277-4.8555-12.059 6.9648c2.6641 3.1797 7.4805 3.3984 10.418 0.46094 1.9297-1.9297 2.5938-4.8242 1.6406-7.4258zm-7.3672 19.957c2.3711-0.24219 4.6641 0.72656 6.1484 2.4961l-1.918 1.1094c-0.58203 0.33594-0.78125 1.082-0.44141 1.6641 0.33594 0.58203 1.082 0.78125 1.6641 0.44141l1.918-1.1055c0.92578 2.5352 0.33203 5.3555-1.5156 7.2969-0.46484 0.48828-0.44531 1.2578 0.042968 1.7188 0.48828 0.46484 1.2578 0.44531 1.7227-0.042969 0.82422-0.86719 1.4844-1.8906 1.9414-3.0273 2.6328-6.5938-2.6641-13.703-9.8047-12.977-0.66797 0.066406-1.1562 0.66406-1.0859 1.3359 0.0625 0.66797 0.66016 1.1562 1.3281 1.0898zm7.3477 29.18 0.027344-0.015625c0.92188 2.5273 0.32422 5.3633-1.5195 7.3008-0.46484 0.48828-0.44531 1.2578 0.042968 1.7227 0.48828 0.46484 1.2578 0.44531 1.7227-0.042969 3.5156-3.6953 3.4609-9.457 0-13.094-0.46484-0.48828-1.2344-0.50781-1.7227-0.042969-0.48828 0.46484-0.50781 1.2344-0.042968 1.7227 0.10156 0.10938 0.20312 0.21875 0.29688 0.33203-0.61328 0.35547-0.80859 1.0938-0.46875 1.6797 0.33594 0.57422 1.082 0.77344 1.6641 0.4375zm-6.6172-56.219c-5.25 0-9.5078 4.2578-9.5078 9.5078s4.2578 9.5078 9.5078 9.5078 9.5078-4.2578 9.5078-9.5078-4.2578-9.5078-9.5078-9.5078z" fill-rule="evenodd"/>
<text x="0.0" y="117.5" font-size="5.0" font-weight="bold" font-family="Arbeit Regular, Helvetica, Arial-Unicode, Arial, Sans-serif" fill="#000000">Created by Sulistiana</text><text x="0.0" y="122.5" font-size="5.0" font-weight="bold" font-family="Arbeit Regular, Helvetica, Arial-Unicode, Arial, Sans-serif" fill="#000000">from Noun Project</text></svg>