<svg xmlns="http://www.w3.org/2000/svg" version="1.1" viewBox="-5.0 -10.0 110.0 135.0">
 <path d="m82.094 27.125c-0.16406 0-0.33594-0.03125-0.5-0.097656-0.67969-0.27734-1.0078-1.0508-0.73438-1.7344 0.77344-1.9141 0.72266-5.2695 0.63672-6.4023-0.97656-10-11.254-14.52-11.355-14.566-0.027344-0.011719-0.054687-0.027344-0.082031-0.039063-3.2422-1.668-6.0195-2.0391-8.2461-1.1016-3.1875 1.3438-4.3438 5-4.3555 5.0391-0.19531 0.64062-0.83984 1.0352-1.5 0.92578-1.7344-0.29688-3.1836 0.042968-4.3008 1.0195-1.3711 1.1992-2.1328 3.332-2.0469 5.7148l0.058594 8.8945c0.003906 0.73438-0.58594 1.3359-1.3203 1.3398h-0.007812c-0.73047 0-1.3242-0.58984-1.332-1.3203l-0.054687-8.8516c-0.11719-3.1797 0.95703-6.0312 2.9531-7.7773 1.4727-1.2891 3.3281-1.8867 5.4102-1.7656 0.6875-1.5312 2.3086-4.3242 5.4336-5.6523 2.9883-1.2695 6.5156-0.88281 10.484 1.1562 0.91797 0.40234 11.809 5.4336 12.914 16.762 0.015624 0.21875 0.34766 4.7422-0.82031 7.6328-0.21094 0.51953-0.70703 0.83203-1.2344 0.83203z" fill-rule="evenodd"/>
 <path d="m82.098 27.125c-0.097656 0-0.19531-0.011719-0.28906-0.03125-3.4297-0.76172-7.3438-7.3906-8.0977-8.7109-1.6406-2.7578-5.125-2.7578-7.8359-1.8281-3.6758 1.2578-6.7812-0.15625-7.3086-0.42188-1.0742-0.43359-2.0742-0.38281-2.9766 0.16016-1.3281 0.79688-2.3086 2.5664-2.4922 4.5117l-0.011718 0.11328c-0.21484 2.2695-0.4375 4.6133-4.5664 5.1836-0.73047 0.097657-1.4023-0.40625-1.5-1.1367-0.10156-0.72656 0.40625-1.3984 1.1367-1.5 2.043-0.28125 2.0742-0.61719 2.2812-2.8008l0.011719-0.11328c0.26562-2.8008 1.7109-5.3086 3.7734-6.543 1.6328-0.97656 3.5547-1.0898 5.4141-0.3125 0.042969 0.015626 0.082031 0.035157 0.11719 0.054688 0.019532 0.007812 2.4375 1.25 5.2578 0.28125 3.6992-1.2656 8.5312-1.1445 11 3.0078 1.6367 2.8828 4.6875 7.0742 6.3711 7.4492 0.71875 0.16016 1.168 0.87109 1.0078 1.5859-0.13672 0.62109-0.6875 1.043-1.2969 1.043z" fill-rule="evenodd"/>
 <path d="m65.234 47.266c-0.17578 0-0.35156-0.003906-0.52734-0.011719-5.0547-0.19922-9.9531-3.2383-14.562-9.0352-3.168-3.9844-3.1562-8.1016-3.1406-12.461l0.003906-0.97266c0-0.73438 0.59766-1.332 1.332-1.332s1.332 0.59766 1.332 1.332l-0.003906 0.98047c-0.015625 4.2148-0.027344 7.543 2.5625 10.797 4.1055 5.1641 8.3398 7.8633 12.586 8.0312 3.875 0.15625 7.7734-1.8398 11.586-5.9297 4.1836-4.4844 4.3867-6.8086 4.3672-12.867-0.003906-0.73438 0.58984-1.332 1.3242-1.3359h0.003906c0.73438 0 1.3281 0.59375 1.332 1.3242 0.023437 6.6836-0.40625 9.6797-5.082 14.691-4.2031 4.5039-8.6094 6.7812-13.109 6.7812z" fill-rule="evenodd"/>
 <path d="m97.738 99.984h-64.332c-0.73438 0-1.332-0.59766-1.332-1.332v-21.715c0-11.02 6.9531-19.996 18.598-24.016 0.69531-0.24219 1.4531 0.12891 1.6914 0.82422 0.23828 0.69531-0.12891 1.4531-0.82422 1.6914-10.523 3.6328-16.805 11.668-16.805 21.5v20.387h61.668v-20.387c0-12.969-9.1367-18.852-16.805-21.5-0.69531-0.24219-1.0625-0.99609-0.82422-1.6914 0.24219-0.69531 0.99609-1.0625 1.6914-0.82422 12.164 4.207 18.594 12.512 18.594 24.016v21.715c0 0.73438-0.59375 1.332-1.3281 1.332z" fill-rule="evenodd"/>
 <path d="m56.457 49.68c-0.03125 0-0.058593 0-0.089843-0.003907-0.73438-0.050781-1.2891-0.68359-1.2383-1.418l0.35938-5.4219c0.046875-0.73438 0.6875-1.293 1.4141-1.2383 0.73438 0.050782 1.2891 0.68359 1.2383 1.418l-0.35938 5.4219c-0.046875 0.70312-0.63281 1.2422-1.3242 1.2422z" fill-rule="evenodd"/>
 <path d="m74.691 49.68c-0.69531 0-1.2773-0.53906-1.3242-1.2422l-0.39453-5.9297c-0.050781-0.73437 0.50781-1.3672 1.2383-1.418 0.72656-0.042969 1.3672 0.50391 1.4141 1.2383l0.39453 5.9297c0.050781 0.73438-0.50781 1.3672-1.2383 1.418-0.03125 0-0.058594 0.003907-0.089844 0.003907z" fill-rule="evenodd"/>
 <path d="m65.574 70.16c-0.40234 0-0.78125-0.17969-1.0352-0.49219l-4.5234-5.6016c-0.41406-0.51172-0.39062-1.25 0.054687-1.7344l4.5234-4.9336c0.50391-0.55078 1.457-0.55078 1.9609 0l4.4805 4.8828c0.44141 0.48047 0.46875 1.2148 0.0625 1.7266l-4.4766 5.6523c-0.25 0.31641-0.63281 0.50391-1.0352 0.50391h-0.007813zm-2.7695-6.8789 2.7578 3.418 2.7422-3.457-2.7305-2.9766-2.7695 3.0195z" fill-rule="evenodd"/>
 <path d="m65.574 95.062c-0.30469 0-0.60547-0.10156-0.85156-0.30859l-5.5234-4.6133c-0.35547-0.29688-0.53125-0.75781-0.46484-1.2188l3.418-22.898c0.078125-0.52344 0.45703-0.94922 0.96875-1.0859 0.50781-0.14062 1.0508 0.035156 1.3828 0.44922l1.0586 1.3125 1.0664-1.3438c0.32812-0.41406 0.875-0.59375 1.3867-0.46094 0.51172 0.13672 0.89453 0.5625 0.97266 1.0898l3.4258 22.941c0.070313 0.45703-0.10547 0.92188-0.46094 1.2188l-5.5234 4.6133c-0.24609 0.20703-0.55078 0.30859-0.85156 0.30859zm-4.0977-6.4844 4.0977 3.4219 4.0977-3.4219-2.8633-19.168-0.19531 0.24219c-0.25 0.31641-0.63281 0.50391-1.0352 0.50391h-0.007813c-0.40234 0-0.78125-0.17969-1.0352-0.49609l-0.19922-0.24609-2.8594 19.16z" fill-rule="evenodd"/>
 <path d="m60.227 65.457c-0.375 0-0.72656-0.15625-0.98047-0.42969l-9.1172-9.9492c-0.46484-0.50781-0.46484-1.2891 0-1.7969l5.3477-5.832c0.50391-0.55078 1.457-0.55078 1.9609 0l9.1211 9.9492c0.46484 0.50781 0.46484 1.2891 0 1.7969l-5.3438 5.832c-0.25391 0.27734-0.60938 0.42969-0.98047 0.42969zm-7.3125-11.277 7.3125 7.9805 3.543-3.8633-7.3125-7.9805z" fill-rule="evenodd"/>
 <path d="m70.918 65.457c-0.37109 0-0.72656-0.15625-0.98047-0.42969l-5.3477-5.832c-0.46484-0.50781-0.46484-1.2891 0-1.7969l9.1211-9.9492c0.25391-0.27344 0.60937-0.43359 0.98047-0.43359 0.375 0 0.72656 0.15625 0.98047 0.43359l5.3477 5.832c0.46484 0.50781 0.46484 1.2891 0 1.7969l-9.1211 9.9453c-0.25391 0.27734-0.60938 0.42969-0.98047 0.42969zm-3.5391-7.1602 3.543 3.8633 7.3125-7.9805-3.5391-3.8633z" fill-rule="evenodd"/>
 <path d="m84.559 89.535c-0.29297 0-0.58984-0.097656-0.83203-0.29297l-6.418-5.1602c-0.3125-0.25391-0.49609-0.63281-0.49609-1.0391v-8.4688c0-0.73438 0.59766-1.332 1.332-1.332h12.551c0.73438 0 1.332 0.59766 1.332 1.332v8.4688c0 0.39453-0.17188 0.76562-0.47266 1.0195l-6.1367 5.1602c-0.24609 0.20703-0.55078 0.3125-0.85547 0.3125zm-5.0859-7.125 5.0664 4.0742 4.8242-4.0586v-6.5195h-9.8906z" fill-rule="evenodd"/>
 <path d="m51.789 78.648h-10.121c-0.73438 0-1.332-0.59766-1.332-1.332s0.59766-1.332 1.332-1.332h10.121c0.73438 0 1.332 0.59375 1.332 1.332 0 0.73438-0.59375 1.332-1.332 1.332z" fill-rule="evenodd"/>
 <path d="m25.98 56.512h-9.4258c-0.73438 0-1.332-0.59375-1.332-1.332v-4.3164c-1.3789-0.55859-2.6641-1.3008-3.8398-2.2227l-3.7422 2.1602c-0.63672 0.36719-1.4492 0.14844-1.8164-0.48828l-4.7148-8.1641c-0.36719-0.63672-0.14844-1.4492 0.48828-1.8164l3.7383-2.1602c-0.10156-0.73438-0.15234-1.4766-0.15234-2.2188s0.050781-1.4844 0.15234-2.2188l-3.7383-2.1602c-0.30469-0.17578-0.52734-0.46875-0.62109-0.80859-0.089843-0.33984-0.042968-0.70312 0.13281-1.0078l4.7148-8.1641c0.36719-0.63672 1.1836-0.85156 1.8164-0.48828l3.7383 2.1602c1.1758-0.91797 2.4609-1.6641 3.8398-2.2227v-4.3164c0-0.73437 0.59766-1.332 1.332-1.332h9.4258c0.73438 0 1.332 0.59766 1.332 1.332v4.3164c1.3789 0.55859 2.6641 1.3008 3.8398 2.2227l3.7422-2.1602c0.63672-0.36719 1.4492-0.14844 1.8164 0.48828l4.7148 8.1641c0.17578 0.30469 0.22266 0.66797 0.13281 1.0078-0.089844 0.33984-0.3125 0.63281-0.62109 0.80859l-3.7383 2.1602c0.10156 0.73438 0.15234 1.4766 0.15234 2.2188s-0.050781 1.4844-0.15234 2.2188l3.7383 2.1602c0.63672 0.36719 0.85547 1.1797 0.48828 1.8164l-4.7148 8.1641c-0.36719 0.63672-1.1836 0.85156-1.8164 0.48828l-3.7422-2.1602c-1.1758 0.91797-2.4609 1.6641-3.8398 2.2227v4.3164c0.003906 0.73437-0.59375 1.3281-1.3281 1.3281zm-8.0977-2.6602h6.7656v-3.9102c0-0.57031 0.36328-1.0781 0.90625-1.2617 1.6914-0.57031 3.2344-1.4609 4.5781-2.6484 0.42969-0.37891 1.0508-0.44141 1.5469-0.15625l3.3906 1.957 3.3828-5.8594-3.3867-1.957c-0.49219-0.28516-0.75-0.85547-0.64062-1.4141 0.17188-0.86719 0.26172-1.7578 0.26172-2.6484s-0.089844-1.7812-0.26172-2.6484c-0.11328-0.55859 0.14453-1.1289 0.64062-1.4141l3.3867-1.957-3.3828-5.8594-3.3906 1.957c-0.49609 0.28516-1.1172 0.22266-1.543-0.15234-1.3477-1.1875-2.8906-2.0781-4.582-2.6484-0.54297-0.18359-0.90625-0.69141-0.90625-1.2617v-3.9102h-6.7695v3.9102c0 0.57031-0.36328 1.0781-0.90625 1.2617-1.6914 0.57031-3.2344 1.4609-4.582 2.6484-0.42969 0.37891-1.0508 0.44141-1.5469 0.15234l-3.3906-1.957-3.3828 5.8594 3.3867 1.957c0.49219 0.28516 0.75 0.85547 0.64062 1.4141-0.17188 0.86719-0.26172 1.7578-0.26172 2.6484s0.089843 1.7812 0.26172 2.6484c0.11328 0.55859-0.14453 1.1289-0.64062 1.4141l-3.3867 1.957 3.3828 5.8594 3.3906-1.957c0.49219-0.28516 1.1172-0.22266 1.5469 0.15625 1.3477 1.1875 2.8906 2.0781 4.5781 2.6484 0.54297 0.18359 0.90625 0.69141 0.90625 1.2617v3.9102z" fill-rule="evenodd"/>
 <path d="m21.266 46.059c-5.5703 0-10.098-4.5312-10.098-10.098 0-5.5703 4.5312-10.098 10.098-10.098 5.5703 0 10.098 4.5312 10.098 10.098 0 5.5703-4.5312 10.098-10.098 10.098zm0-17.539c-4.1016 0-7.4375 3.3359-7.4375 7.4375 0 4.1016 3.3359 7.4375 7.4375 7.4375s7.4375-3.3359 7.4375-7.4375c0-4.1016-3.3359-7.4375-7.4375-7.4375z" fill-rule="evenodd"/>
<text x="0.0" y="117.5" font-size="5.0" font-weight="bold" font-family="Arbeit Regular, Helvetica, Arial-Unicode, Arial, Sans-serif" fill="#000000">Created by Muhammad Shabraiz</text><text x="0.0" y="122.5" font-size="5.0" font-weight="bold" font-family="Arbeit Regular, Helvetica, Arial-Unicode, Arial, Sans-serif" fill="#000000">from Noun Project</text></svg>