<svg xmlns="http://www.w3.org/2000/svg" version="1.1" viewBox="-5.0 -10.0 110.0 135.0">
 <path d="m50.02 80.043c-0.19922 0-0.375 0.14062-0.41797 0.34375l-0.81641 4.0977c-0.15625 0.78906 0.44531 1.5156 1.2344 1.5156 0.78516 0 1.3867-0.72656 1.2305-1.5156l-0.81641-4.0977c-0.042969-0.20312-0.21875-0.34375-0.41406-0.34375zm-12.426-3.582c-0.17188-0.10156-0.39453-0.066407-0.52734 0.085937l-2.75 3.1406c-0.52734 0.60156-0.375 1.5352 0.31641 1.9336 0.67969 0.39453 1.5586 0.070312 1.8164-0.69141l1.3359-3.957c0.066406-0.19922-0.015625-0.41016-0.19141-0.51172zm25.34 0.085937c-0.13281-0.15234-0.35547-0.1875-0.52734-0.085937-0.17578 0.10156-0.25781 0.3125-0.19141 0.51172l1.3359 3.957c0.25781 0.76172 1.1367 1.0859 1.8164 0.69141 0.69141-0.39844 0.84375-1.332 0.31641-1.9336zm-26.484-57.477c-0.25781-0.76172-1.1367-1.0859-1.8164-0.69141-0.69141 0.39844-0.84375 1.332-0.31641 1.9336l2.75 3.1406c0.13281 0.15234 0.35547 0.1875 0.52734 0.085937 0.17578-0.10156 0.25781-0.3125 0.19141-0.51172zm28.918-0.69141c-0.67969-0.39453-1.5586-0.070312-1.8164 0.69141l-1.3359 3.957c-0.066406 0.19922 0.015625 0.41016 0.19141 0.51172 0.17188 0.10156 0.39453 0.066407 0.52734-0.085937l2.75-3.1406c0.52734-0.60156 0.375-1.5352-0.31641-1.9336zm-15.348-4.3789c-0.78906 0-1.3906 0.72656-1.2344 1.5156l0.81641 4.0977c0.042969 0.20312 0.21875 0.34375 0.41797 0.34375 0.19531 0 0.37109-0.14062 0.41406-0.34375l0.81641-4.0977c0.15625-0.78906-0.44531-1.5156-1.2305-1.5156zm7.9805 36c0-1.6094-0.27734-3.1445-0.77734-4.5625h-3c-0.46484 0-0.91797 0.085938-1.3477 0.24219 0.71875 1.2734 1.125 2.75 1.125 4.3203 0 2.4062-0.97266 4.625-2.5547 6.1992-0.003906 0.007812-0.007812 0.011719-0.011718 0.019531-0.007813 0.003906-0.015625 0.011719-0.023438 0.015625-1.457 1.4336-3.4258 2.3281-5.6328 2.3281h-19.555c-4.6406 0-8.2227-3.9336-8.2227-8.5625s3.582-8.5625 8.2227-8.5625h13.988c0.93359-1.6836 2.1406-3.1836 3.5547-4.4375h-17.543c-6.6523 0-12.223 5.7188-12.223 13s5.5703 13 12.223 13h19.555c6.6523 0 12.223-5.7188 12.223-13zm24 0c0 4.6289-3.582 8.5625-8.2227 8.5625h-13.777c-0.070312 0-0.13672-0.003906-0.20312-0.011719-0.9375 1.6875-2.1445 3.1914-3.5625 4.4492h17.543c6.6523 0 12.223-5.7188 12.223-13s-5.5703-13-12.223-13h-19.555c-6.6523 0-12.223 5.7188-12.223 13 0 1.6094 0.27344 3.1445 0.77344 4.5625h3.0039c0.46484 0 0.91797-0.085938 1.3438-0.24219-0.71484-1.2734-1.1211-2.75-1.1211-4.3203 0-2.4062 0.96875-4.625 2.5508-6.2031 0.007813-0.003906 0.011719-0.007813 0.015625-0.015625 0.007813-0.007812 0.019532-0.015625 0.027344-0.023438 1.457-1.4297 3.4219-2.3203 5.6289-2.3203h19.555c4.6406 0 8.2227 3.9336 8.2227 8.5625z"/>
<text x="0.0" y="117.5" font-size="5.0" font-weight="bold" font-family="Arbeit Regular, Helvetica, Arial-Unicode, Arial, Sans-serif" fill="#000000">Created by HideMaru</text><text x="0.0" y="122.5" font-size="5.0" font-weight="bold" font-family="Arbeit Regular, Helvetica, Arial-Unicode, Arial, Sans-serif" fill="#000000">from Noun Project</text></svg>