<svg xmlns="http://www.w3.org/2000/svg" version="1.1" viewBox="-5.0 -10.0 110.0 135.0">
 <path d="m27.238 81.562c-0.058593 0.035156-0.11328 0.082031-0.16016 0.14453-0.74219 0.65625-1.3242 1.1133-1.6055 1.2109-0.92188 0.32422-1.7578 0.21484-2.4141-0.15234-0.44922-0.25-0.82422-0.625-1.0898-1.0625-0.26562-0.44141-0.42578-0.94531-0.44531-1.4609-0.03125-0.74609 0.23047-1.5156 0.87109-2.1445 1.5781-1.0273 3.3242-2.5 5.2695-4.1641 1.9219-1.6406 3.9023-3.3984 5.3047-5.0547 0.8125-0.19922 1.4688-0.12109 1.9531 0.14062l0.027344 0.015625c0.375 0.21094 0.66016 0.53516 0.84766 0.93359 0.20312 0.42578 0.29297 0.93359 0.26172 1.4688-0.039063 0.70703-0.28516 1.4531-0.75 2.1172-0.003906 0.007812-0.011719 0.015624-0.015625 0.019531-0.16797 0.23828-0.36719 0.46094-0.59375 0.67188-0.23047 0.21094-0.79688 0.78516-1.5508 1.5469-1.6367 1.6523-4.1641 4.207-5.9141 5.7734zm4.9453-13.539c0.011718-0.015626 0.027344-0.035157 0.042968-0.050782l0.027344-0.03125c1.2266-1.4922 1.8906-2.8164 1.3711-3.6914-1.3359-2.2617-3.375-1.6758-4.9375-0.75-0.80078 0.47266-1.4883 1.0352-1.9375 1.3984-0.125 0.10156-0.23438 0.19141-0.28516 0.23047-0.48047 0.47656-1.9492 1.6836-3.5859 2.9844-2 1.5898-4.2539 3.3281-5.2695 4.0547-0.13672 0.097656-0.27734 0.1875-0.41797 0.26562-0.039062 0.054687-0.089844 0.10547-0.15234 0.14844-0.19531 0.13281-0.39453 0.29297-0.58594 0.48047-0.47656 0.46484-0.88672 1.0703-1.0391 1.7461-0.14844 0.65234-0.058593 1.3867 0.44922 2.1406 0.13672 0.20312 0.30859 0.41406 0.51172 0.625 1.1367 1.168 2.5039 1.1016 4.1406 0.28906 1.8125-0.90625 3.9414-2.6953 6.4062-4.8008 1.9336-1.6484 3.918-3.4141 5.2656-5.0352zm-15.875-6.6875c-0.57812-1.6055-1.0469-3.2617-1.3906-4.9648-0.15625-0.77344-0.28906-1.5508-0.39453-2.3398-1.3047 0.089844-2.4414 0.4375-3.2344 1.0586-0.73437 0.57422-1.1719 1.4023-1.1562 2.4922 0.007813 0.48828 0.074219 0.92578 0.19141 1.3164 0.28906 0.96484 0.89844 1.625 1.6602 2.0352 0.80078 0.43359 1.7734 0.60938 2.7383 0.59375 0.54297-0.007813 1.082-0.078125 1.5898-0.19531zm5.8438 5.8789c1.6172-1.2852 3.0547-2.4609 3.4922-2.8984 0.015625-0.015625 0.03125-0.035156 0.050781-0.050781 0.66797-0.69141 1.1406-1.6289 1.293-2.5156 0.082031-0.48047 0.066407-0.93359-0.066406-1.3086-0.12109-0.32812-0.34375-0.60156-0.6875-0.76953-0.40625-0.19922-0.98828-0.26562-1.7812-0.14453-1.0508 0.16016-3.0117 1.3438-5.0078 2.7695-2.8281 2.0156-5.6641 4.4609-6.1992 5.2383-0.019532 0.03125-0.046875 0.0625-0.074219 0.09375-0.59375 0.61328-0.69922 1.3828-0.48047 2.082 0.11719 0.38281 0.32812 0.75 0.60547 1.0625 0.28125 0.31641 0.625 0.57812 1.0078 0.75781 0.77344 0.35547 1.7266 0.35156 2.6289-0.29297 1.0156-0.73047 3.25-2.4492 5.2227-4.0195zm50.184 6.7188c-1.9219-1.6406-3.9023-3.3984-5.3047-5.0547-0.8125-0.19922-1.4688-0.12109-1.9531 0.14062l-0.027344 0.015625c-0.375 0.21094-0.66016 0.53516-0.84766 0.93359-0.20312 0.42578-0.29297 0.93359-0.26172 1.4688 0.039063 0.70703 0.28516 1.4531 0.75 2.1172 0.003906 0.007812 0.011719 0.015624 0.015625 0.019531 0.16797 0.23828 0.36719 0.46094 0.59375 0.67188 0.23047 0.21094 0.79688 0.78516 1.5508 1.5469 1.6367 1.6523 4.1641 4.207 5.9141 5.7734 0.058594 0.035156 0.11328 0.082032 0.16016 0.14453 0.74219 0.65625 1.3242 1.1133 1.6055 1.2109 0.92188 0.32422 1.7578 0.21484 2.4141-0.15234 0.44922-0.25 0.82422-0.625 1.0898-1.0625 0.26562-0.44141 0.42578-0.94531 0.44531-1.4609 0.03125-0.74609-0.23047-1.5156-0.87109-2.1445-1.5781-1.0273-3.3242-2.5-5.2695-4.1641zm14.422-6.3984c-0.53125-0.77344-3.3711-3.2227-6.1992-5.2383-2-1.4219-3.957-2.6055-5.0078-2.7695-0.78906-0.12109-1.3711-0.054688-1.7812 0.14453-0.34766 0.16797-0.57031 0.44141-0.6875 0.76953-0.13281 0.37109-0.14844 0.82812-0.066406 1.3086 0.14844 0.88281 0.62109 1.8203 1.293 2.5156 0.019531 0.015625 0.035156 0.03125 0.050781 0.050781 0.4375 0.43359 1.875 1.6133 3.4922 2.8984 1.9727 1.5664 4.207 3.2891 5.2227 4.0195 0.90234 0.64844 1.8516 0.65234 2.6289 0.29297 0.38281-0.17578 0.72656-0.4375 1.0078-0.75781 0.27734-0.3125 0.48828-0.67969 0.60547-1.0625 0.21484-0.69922 0.11328-1.4688-0.48047-2.082-0.027344-0.027344-0.050782-0.058594-0.074219-0.09375zm1.957-12.449c-0.79688-0.62109-1.9414-0.97266-3.2539-1.0586-0.10547 0.78516-0.23828 1.5664-0.39453 2.3359-0.14062 0.6875-0.29688 1.3633-0.47656 2.0352-0.003906 0.011718-0.003906 0.019531-0.007813 0.027343-0.26172 0.98438-0.56641 1.9531-0.90625 2.9023 0.51172 0.12109 1.0586 0.19141 1.6055 0.19922 0.96484 0.015625 1.9375-0.16016 2.7383-0.59375 0.76172-0.41406 1.3711-1.0703 1.6602-2.0352 0.11719-0.39063 0.18359-0.82813 0.19141-1.3164 0.015625-1.0898-0.42188-1.918-1.1562-2.4922zm-22.684 21.516c-0.73438-0.74219-1.2891-1.3008-1.5156-1.5078-0.23438-0.21484-0.44531-0.44531-0.63281-0.6875-0.71094-0.16406-1.2773-0.09375-1.7031 0.13281-0.34375 0.18359-0.60547 0.47656-0.77344 0.83594-0.17969 0.37891-0.25781 0.83203-0.23438 1.3086 0.046875 0.86719 0.44141 1.8008 1.2188 2.5156 0.25 0.23047 0.79688 0.83203 1.4805 1.582-0.089844-0.03125-0.19141-0.03125-0.28516 0.007812-0.30469 0.13281-0.61719 0.24609-0.92188 0.37109-0.48047-0.53125-0.85937-0.9375-1.0508-1.1133-1.0117-0.92969-1.5273-2.1562-1.5898-3.3047-0.035157-0.66406 0.082031-1.3047 0.34375-1.8594 0.27344-0.57422 0.69531-1.0547 1.2695-1.3594 0.43359-0.23438 0.94531-0.36328 1.5312-0.35938-0.22656-0.54687-0.35156-1.1172-0.37891-1.6641-0.023437-0.45703 0.019532-0.90625 0.125-1.3281-0.75781-1.1211-1.168-2.5312-1.5625-3.8906-0.71094-2.4453-1.3672-4.7031-4.0312-4.1914-5.7148 1.0938-7.0039-0.82422-7.7539-1.9375-0.18359-0.27344-0.31641-0.47266-0.40625-0.47266-2.8555 0-2.9609 1.8359-3.043 3.2188-0.070313 1.2148-0.12891 2.1797-1.3633 2.0781-3.8906-0.32031-4.2305 0.58984-4.5977 1.5898-0.38672 1.0508-0.80078 2.1719-3.4922 2.582 0.066407 0.10547 0.125 0.21484 0.17969 0.32812 0.28125 0.59766 0.41016 1.2969 0.37109 2.0195-0.027344 0.55078-0.15625 1.1172-0.37891 1.6641 0.58594-0.003906 1.0977 0.12891 1.5312 0.35938 0.57031 0.30469 0.99609 0.78516 1.2695 1.3594 0.26172 0.55078 0.37891 1.1953 0.34375 1.8594-0.0625 1.1484-0.57812 2.375-1.5898 3.3047-0.19141 0.17578-0.57031 0.58594-1.0547 1.1172-0.30859-0.12109-0.61719-0.23828-0.92578-0.37109-0.09375-0.039062-0.19531-0.039062-0.28516-0.007812 0.68359-0.75391 1.2344-1.3594 1.4844-1.5898 0.77734-0.71484 1.1719-1.6484 1.2188-2.5156 0.023437-0.47656-0.054687-0.92969-0.23438-1.3086-0.16797-0.35547-0.42969-0.65234-0.77344-0.83594-0.42578-0.22656-0.99219-0.29688-1.7031-0.13281-0.1875 0.24219-0.39453 0.47266-0.63281 0.6875-0.22656 0.20703-0.78125 0.76953-1.5156 1.5078-1.6289 1.6484-4.125 4.168-5.9805 5.8086-0.38281 0.5-0.53516 1.082-0.49609 1.6406 0.03125 0.43359 0.17969 0.85156 0.42578 1.2031 0.24219 0.34375 0.58203 0.62109 1 0.78125 0.53125 0.20312 1.1992 0.21875 1.9688-0.050782 0.75391-0.26562 3.2344-2.9883 4.9766-4.9062-0.046875 0.1875 0.042969 0.38672 0.22656 0.46875 4.3984 1.8867 9.0781 2.8477 13.906 2.8477 4.832 0 9.5156-0.96094 13.918-2.8516 0.18359-0.078125 0.27344-0.27734 0.22656-0.46875 1.7383 1.918 4.2266 4.6484 4.9805 4.9141 0.76953 0.26953 1.4375 0.25391 1.9688 0.050781 0.41797-0.16016 0.75781-0.4375 1-0.78125 0.24609-0.35156 0.39453-0.76953 0.42578-1.2031 0.039063-0.55859-0.11328-1.1406-0.49609-1.6406-1.8516-1.6406-4.3516-4.1641-5.9805-5.8086zm17.523-3.5391c-0.19141-0.18359-0.39063-0.34766-0.58594-0.48047-0.0625-0.039062-0.10938-0.089843-0.15234-0.14844-0.14062-0.078125-0.27734-0.16797-0.41797-0.26562-1.0156-0.72656-3.2695-2.4648-5.2695-4.0547-1.6367-1.3008-3.1016-2.5039-3.5859-2.9844-0.050781-0.042968-0.16406-0.13281-0.28516-0.23047-0.44922-0.36328-1.1406-0.92578-1.9375-1.3984-1.5625-0.92578-3.6016-1.5117-4.9375 0.75-0.51953 0.87891 0.14453 2.1992 1.3711 3.6914l0.027344 0.03125c0.015625 0.015625 0.027344 0.03125 0.042969 0.050782 1.3477 1.6211 3.3359 3.3867 5.2656 5.0352 2.4648 2.1055 4.5938 3.8945 6.4062 4.8008 1.6328 0.81641 3.0039 0.87891 4.1406-0.28906 0.20312-0.21094 0.375-0.41797 0.51172-0.625 0.50781-0.75391 0.59766-1.4883 0.44922-2.1406-0.15234-0.67578-0.5625-1.2812-1.0391-1.7461zm-65.66-9.875c0.054688 0 0.10938-0.011719 0.16016-0.03125 0.20703-0.089844 0.30078-0.32812 0.21484-0.53516-1.8242-4.2773-2.75-8.8281-2.75-13.52 0-1.3203 0.082031-2.6211 0.22656-3.9062 0.16797 0.26172 0.33984 0.56641 0.52344 0.89453 0.52734 0.95312 1.1641 2.1016 1.7461 2.3164 1.7422 0.64453 1.6562 1.3203 1.5859 1.8711-0.011718 0.10547-0.023437 0.19141 0.17969 0.25781 1.832 0.59766 2.5664 0.47656 2.7148 0.023438 0.35156-1.0742-1.4688-3.6992-2.0625-4.5547-0.16797-0.24219-0.26953-0.38672-0.26172-0.53906 0.19531-4.5742-0.71094-5.8711-1.5078-7.0078-0.34375-0.48828-0.66406-0.95703-0.89453-1.5898 2.4609-6.4609 6.8125-11.992 12.371-15.926-0.058594 0.33984-0.085937 0.67969-0.054687 0.99609 0.039062 0.38281 0.14453 0.73047 0.29687 1.0039 0.13672 0.24219 0.30859 0.42188 0.50781 0.50781 0.10156 0.042969 0.21875 0.0625 0.33984 0.050781 0.042969-0.003906 0.085937 0 0.12891 0.007812 0.92969 0.14844 1.9961 0.35156 2.7422 0.94922 0.80078 0.64062 1.2031 1.6719 0.66406 3.418-0.11719 0.37891-0.22656 0.76953-0.31641 1.1523-0.23438 0.98047-0.37891 1.9609-0.34375 2.7266 0.027343 0.62891 0.16016 1.0742 0.44922 1.1641l0.03125 0.007812c0.13672 0.007813 0.36719-0.30469 0.62109-0.75781 0.32422-0.58594 0.61328-1.3711 0.78906-2.1172 0.042968-0.1875 0.082031-0.37891 0.11328-0.56641 0.097656-0.60156 0.51953-1.043 0.99609-1.2031 0.26953-0.089844 0.55859-0.09375 0.82422 0.007812 0.26562 0.10156 0.50391 0.30078 0.66797 0.61719 0.32422 0.62891 0.34375 1.7891-0.42188 3.6406-0.23828 0.57812 0.066407 0.88281 0.52734 1.3516 0.8125 0.82031 1.9961 2.0117 2.2539 5.1602 0.082031 1 0.82031 1.3359 1.5625 1.6758 1.3867 0.63281 2.7773 1.2656 1.7109 4.6758-0.61328 1.9609-0.47266 3.6758 0.003906 4.9648 0.24219 0.64844 0.56641 1.1875 0.92188 1.5898 0.33594 0.37891 0.69531 0.63281 1.0234 0.73828 0.19141 0.058594 0.36719 0.066406 0.51562 0.011719 0.12109-0.046875 0.22266-0.085938 0.30859-0.125 0.89453-0.40234 1.3477-0.95312 1.5117-1.5547 0.17188-0.62109 0.050781-1.3242-0.19531-1.9922-0.046874-0.125-0.097656-0.25-0.15625-0.37891-0.89844-2-0.13281-2.6328 0.40625-3.0859l0.027344-0.023437c0.050782-0.042969 0.078125-0.0625 0.10547-0.085938 0.80859-0.64844 3.4727-2.7812 1.0234-6.8594-0.14062-0.23438-0.16797-2.5664 0.22656-4.0391 0.12109-0.45312 0.28516-0.84375 0.49609-1.1055 0.29297-0.36328 0.65625-0.50781 1.1016-0.32812 0.45703 0.18359 0.99219 0.8125 1.6016 2.0977 0.11719 0.25 0.36719 0.38281 0.63672 0.375 0.14063-0.003906 0.28906-0.046875 0.42969-0.13281 0.14453-0.089843 0.28125-0.22656 0.39062-0.41016 0.39453-0.66797 0.43359-1.9219-0.48438-3.8945-0.70312-1.5078-0.58203-2.7227-0.003906-3.6172 0.32812-0.50781 0.80469-0.90625 1.3594-1.1836 0.54297-0.27344 1.1602-0.4375 1.793-0.48828 1.5234-0.12109 3.1523 0.41406 4.0273 1.6562 0.003907 0.007813 0.94531 0.625 1.9961 1.1016 0.44922 0.20312 0.90234 0.36719 1.2852 0.42188 0.29297 0.039062 0.52734 0.019531 0.64062-0.10938 0.046875-0.054687 0.082032-0.13281 0.10156-0.24219 0.14844-0.80469 0.12109-1.5742 0.097656-2.2227-0.023437-0.67578-0.046875-1.2383 0.12891-1.6719 0.41016-1.0195 1.5938-1.0977 5.2461 0.37891l0.19531 0.078126c1.3164 0.53516 2.6406 1.0547 4.1055 0.23828 2.3516 2.5 4.3398 5.3477 5.8672 8.4609 0 0.003906 0 0.003906-0.003906 0.007813-0.3125 1.2227-0.69531 2.7031-2.3633 4.1289-0.46484 0.39844-0.33984 1.043-0.21094 1.6953 0.078125 0.40625 0.16016 0.81641 0.13672 1.2305-0.089844 1.4922-1.4453 2.6523-8.543 2.2266-2.25-0.13672-3.7227 0.90625-4.4023 2.0547-0.22656 0.38281-0.36328 0.77344-0.40625 1.1289-0.042969 0.33203-0.007813 0.625 0.10938 0.85156 0.15234 0.29688 0.46875 0.47266 0.96484 0.42578 3.3125-0.30078 3.9258 0.91016 4.6172 2.2656 0.42969 0.84375 0.89062 1.7578 2.3438 2.2422 0.52734 0.17578 1.1914 0.3125 2.0312 0.39062 0.85547 0.078125 1.8867 0.10156 3.1328 0.054687 4.1406-0.16406 4.3203 1.332 4.5117 2.9336 0.074219 0.60938 0.15625 1.2383 0.59766 1.7344-0.44141 1.793-1.0195 3.5547-1.75 5.2734-0.089844 0.20703 0.007812 0.44531 0.21484 0.53516 0.20703 0.089844 0.44531-0.007813 0.53516-0.21484 1.8672-4.3789 2.8125-9.0312 2.8125-13.828 0-9.4258-3.6719-18.289-10.336-24.953-6.6641-6.6641-15.527-10.336-24.953-10.336-9.4258 0-18.289 3.6719-24.953 10.336-6.6641 6.6641-10.336 15.527-10.336 24.953 0 4.8008 0.94922 9.457 2.8164 13.836 0.066406 0.15625 0.21484 0.24609 0.375 0.24609z"/>
<text x="0.0" y="117.5" font-size="5.0" font-weight="bold" font-family="Arbeit Regular, Helvetica, Arial-Unicode, Arial, Sans-serif" fill="#000000">Created by Ahmad Ishaq</text><text x="0.0" y="122.5" font-size="5.0" font-weight="bold" font-family="Arbeit Regular, Helvetica, Arial-Unicode, Arial, Sans-serif" fill="#000000">from Noun Project</text></svg>