<svg xmlns="http://www.w3.org/2000/svg" xmlns:xlink="http://www.w3.org/1999/xlink" version="1.1" x="0px" y="0px" viewBox="0 0 100 125" enable-background="new 0 0 100 100" xml:space="preserve"><g><path d="M50,5C25.1,5,5,25.1,5,50c0,24.9,20.1,45,45,45s45-20.1,45-45C95,25.1,74.9,5,50,5z M50,87.1c-20.5,0-37.1-16.7-37.1-37.1   c0-20.5,16.7-37.1,37.1-37.1S87.1,29.5,87.1,50C87.1,70.5,70.5,87.1,50,87.1z"/><path d="M57.5,53.5c4.7-2.6,7.9-7.6,7.9-13.4c0-8.4-6.8-15.2-15.2-15.2S35,31.7,35,40.2c0,5.8,3.2,10.8,7.9,13.4   c-6.6,2.2-12,7.2-14.6,13.6l0,0c5.2,6.4,13.1,10.5,21.9,10.5c8.9,0,16.8-4.1,22-10.6l-0.1,0.1C69.5,60.7,64.1,55.7,57.5,53.5z"/></g><text x="0" y="115" fill="#000000" font-size="5px" font-weight="bold" font-family="'Helvetica Neue', Helvetica, Arial-Unicode, Arial, Sans-serif">Created by Stephen JB Thomas</text><text x="0" y="120" fill="#000000" font-size="5px" font-weight="bold" font-family="'Helvetica Neue', Helvetica, Arial-Unicode, Arial, Sans-serif">from the Noun Project</text></svg>