<svg xmlns="http://www.w3.org/2000/svg" xmlns:xlink="http://www.w3.org/1999/xlink" version="1.1" x="0px" y="0px" viewBox="0 0 100 125" style="enable-background:new 0 0 100 100;" xml:space="preserve"><style type="text/css">
	.st0{fill:none;}
</style><g><rect class="st0" width="100" height="100"/></g><g><path d="M78.51,50.09c2.34-0.7,4.26-2.27,5.42-4.43c0-0.01,0.01-0.01,0.01-0.02l0.91-1.76c0.06-0.12,0.12-0.24,0.17-0.35   c0.44,0.31,0.97,0.51,1.55,0.55c0.06,0,0.12,0.01,0.18,0.01c1.57,0,2.89-1.23,2.98-2.82l0.15-2.54c0.1-1.65-1.16-3.07-2.81-3.16   c-0.71-0.04-1.38,0.17-1.92,0.56c-0.83-1.96-2.3-3.56-4.22-4.56c-4.47-2.32-10-0.56-12.32,3.91l-0.91,1.77   c-1.69,3.38-1.12,7.26,1.17,9.97c-0.3,1.57-1.26,1.98-2.66,2.59c-0.92,0.4-1.95,0.85-2.83,1.7c-3.79,0.4-9.33,0.88-14.2,0.88   l-4.66-0.08l-3-4.67c-0.27-0.42-0.6-0.81-0.98-1.15c-7.15-6.31-16.66-21.96-17.94-24.1l-0.2-10.06c-0.06-3.16-2.37-5.81-5.49-6.31   c-0.52-0.08-1.02,0.22-1.2,0.71l-5.31,14.9c-0.84,2.36,0.23,4.94,2.5,6l0.46,0.22c0.06,0.03,0.04,0.03,0.07,0.03   c0.29,0.18,2.73,1.92,5.39,10.94c1.4,4.78,4.13,9.2,8.13,13.17l-5.78-0.1c0,0-0.01,0-0.01,0c0,0,0,0,0,0   c-0.09-0.01-0.34-0.18-0.4-0.82c-0.05-0.6-0.58-1.04-1.18-0.99c-0.6,0.05-1.04,0.58-0.99,1.18c0.05,0.55,0.19,1.02,0.39,1.4   c-0.36-0.42-0.98-0.52-1.45-0.2c-1.26,0.86-1.5,2.39-1.54,3.01c-0.14,2.11,1.4,3.92,3.5,4.11l13.64,1.27   c0.92,4.31,2.42,8.82,3.25,11.31l0.23,0.7c0.18,0.53,0.27,1.09,0.28,1.66l0.11,6.24c0.08,4.59,2.49,8.7,6.18,11.05H24.52   c-0.6,0-1.09,0.49-1.09,1.09S23.92,94,24.52,94h58.83c0.6,0,1.09-0.49,1.09-1.09s-0.49-1.09-1.09-1.09H59.52   c0.58-0.38,1.12-0.8,1.6-1.26c0.4-0.28,0.86-0.85,2.48-3.1c0.35-0.49,0.24-1.17-0.24-1.52c-0.49-0.35-1.17-0.24-1.52,0.24   c-0.51,0.71-1.71,2.36-2,2.61c-0.07,0.04-0.13,0.09-0.18,0.15c-1.81,1.81-4.82,2.83-8.04,2.88h-0.51   c-1.18-0.02-2.39-0.17-3.57-0.46c-4.84-1.21-8.28-5.57-8.37-10.62l-0.11-6.24c-0.01-0.79-0.14-1.57-0.39-2.31l-0.23-0.7   c-0.77-2.32-2.13-6.42-3.04-10.41l12.94,1.2l6.24,9.89c0.21,0.34,0.56,0.52,0.93,0.52c0.19,0,0.39-0.05,0.57-0.16   c0.51-0.31,0.68-0.98,0.36-1.5l-1.73-2.83c0.68-0.85,1.8-2.55,3.07-5.76c3.81,0.05,8.26,0.17,11.34,0.47   c0.04,0,0.07,0.01,0.11,0.01c0.55,0,1.03-0.42,1.08-0.98c0.06-0.6-0.38-1.13-0.98-1.19c-6.41-0.64-18.12-0.5-19.16-0.49   l-30.49-2.83c-0.92-0.08-1.59-0.87-1.53-1.8c0.02-0.24,0.11-1.03,0.59-1.36c0.43-0.29,0.58-0.84,0.4-1.3   c0.5,0.73,1.24,1.08,1.93,1.1c0.01,0,0.03,0,0.04,0l28.04,0.5c0.01,0,0.01,0,0.02,0c8.47,0,18.92-1.42,19.03-1.44   c0.6-0.08,1.01-0.63,0.93-1.23c-0.05-0.36-0.27-0.66-0.58-0.82c0.83-0.48,1.61-1.16,2.09-2.26c0.29,0.2,0.59,0.39,0.91,0.56   c1.3,0.7,2.73,1.07,4.17,1.09c-0.36,1.71,0.14,3.48,0.65,5.33c0.91,3.26,1.94,6.96-1.43,11.63c-0.01,0.01-0.01,0.02-0.02,0.02   c-0.04,0.06-3.84,5.65-7.97,11.53c-0.35,0.49-0.23,1.17,0.27,1.52c0.19,0.13,0.41,0.2,0.62,0.2c0.34,0,0.68-0.16,0.89-0.46   c4.05-5.77,7.78-11.25,7.98-11.55c3.96-5.51,2.73-9.93,1.75-13.47c-0.56-2.02-1.01-3.65-0.37-5.02   C78.24,50.16,78.37,50.13,78.51,50.09z M55.44,62.42c-0.79,1.87-1.48,3.06-1.97,3.8l-2.44-3.79   C51.95,62.42,53.53,62.41,55.44,62.42z M14.25,25.86l-0.43-0.2c-1.24-0.59-1.83-2-1.37-3.3L17.42,8.4   c1.63,0.62,2.76,2.17,2.79,3.97l0.21,10.35c0,0.19,0.06,0.37,0.15,0.53c0.16,0.27,1.65,2.78,3.86,6.19l-5.64,2.82   C16.62,27.2,14.79,26.09,14.25,25.86z M19.61,34.29l6.04-3.01c3.75,5.65,8.97,12.88,13.45,16.83c0.23,0.2,0.43,0.44,0.59,0.7   l2.22,3.45l-11.72-0.2c-4.67-4.12-7.8-8.78-9.29-13.84C20.46,36.74,20.03,35.44,19.61,34.29z M86.09,38.5   c0.03-0.43,0.38-0.77,0.81-0.77c0.02,0,0.03,0,0.05,0c0.45,0.03,0.79,0.41,0.76,0.86l-0.15,2.54c-0.03,0.45-0.41,0.79-0.86,0.76   c-0.45-0.03-0.79-0.41-0.76-0.86L86.09,38.5z M76.74,32.72c1.08,0,2.17,0.25,3.2,0.78c3.41,1.76,4.74,5.97,2.97,9.39l-0.9,1.75   c-0.6,1.11-1.47,2.02-2.52,2.65l-1.27-5.06c-0.09-0.38-0.04-0.78,0.13-1.12c0.95-1.84,0.23-4.12-1.61-5.07l-3.99-2.07   C73.93,33.15,75.32,32.72,76.74,32.72z M69.65,38.23l0.91-1.76c0.17-0.32,0.36-0.62,0.56-0.91l4.63,2.4   c0.77,0.4,1.08,1.36,0.67,2.14c-0.41,0.81-0.52,1.73-0.32,2.61c0,0.01,0,0.01,0,0.02l1.34,5.37c-1.65,0.38-3.36,0.16-4.87-0.65   C69.25,45.67,67.96,41.61,69.65,38.23z"/><circle cx="65.2" cy="83.38" r="1.08"/></g><text x="0" y="115" fill="#000000" font-size="5px" font-weight="bold" font-family="'Helvetica Neue', Helvetica, Arial-Unicode, Arial, Sans-serif">Created by Prashanth Rapolu</text><text x="0" y="120" fill="#000000" font-size="5px" font-weight="bold" font-family="'Helvetica Neue', Helvetica, Arial-Unicode, Arial, Sans-serif">from the Noun Project</text></svg>